<?xml version="1.0" encoding="UTF-8"?>
<!-- Generator: Adobe Illustrator 19.2.1, SVG Export Plug-In . SVG Version: 6.00 Build 0)  -->
<svg id="layer" width="600.32" height="151.92" version="1.1" viewBox="0 0 600.32 151.92" xml:space="preserve" xmlns="http://www.w3.org/2000/svg">
<style type="text/css">
	.st0{fill:#C41230;}
	.st1{fill:#FFFFFF;}
	.st2{fill:none;stroke:#000000;stroke-width:2.2336;}
	.st3{fill:none;stroke:#000000;stroke-width:0.4564;}
	.st4{fill:none;stroke:#000000;stroke-width:0.4651;}
</style>
<g transform="translate(-20.083 -245.38)">
	<path d="m374.6 271.3c-1.3-2.7-3.1-4.8-6.5-5.6v-1.5c2.1 0 8.8 0.2 10.4 0.2 1.5 0 7.5-0.2 9.6-0.2v1.7c-1.9 0.4-4 1.5-4 3.3 0 1.5 0.8 3.1 2.5 6.7l15 34 14.2-34c1-2.7 1.9-4.8 1.9-6.5 0-1.9-1.7-3.1-4-3.5v-1.7c1.9 0 6.5 0.2 7.9 0.2 1.3 0 6.7-0.2 8.8-0.2v1.7c-3.5 1-5.6 2.9-7.7 7.5l-20.8 49h-4.4z"/>
	<path d="m173.2 320.3c2.7-0.6 4.6-1.9 4.6-5v-44.6c0-2.9-1.9-4.2-4.6-5v-1.7c1.5 0 7.5 0.2 9 0.2 1.7 0 8.1-0.2 9.6-0.2v1.7c-2.7 0.6-4.8 1.9-4.8 5v18.8h33.4v-18.8c0-3.1-1.7-4.4-4.6-5v-1.7c1.5 0 7.7 0.2 9.6 0.2 1.5 0 7.7-0.2 9.2-0.2v1.7c-2.7 0.6-4.8 1.9-4.8 5v44.8c0 2.9 1.9 4.2 4.8 5v1.5c-1.5 0-7.7-0.2-9.2-0.2-1.7 0-8.1 0.2-9.6 0.2v-1.5c2.7-0.6 4.6-1.9 4.6-5v-21.3h-33.4v21.3c0 3.1 1.9 4.2 4.8 5v1.5c-1.5 0-7.9-0.2-9.6-0.2-1.5 0-7.7 0.2-9 0.2zm70.5 0c3.5-0.8 5.6-3.1 7.1-6.5l18.6-44.4c0.8-1.9 1.7-5.6 1.7-5.6h5.2s0.8 3.8 1.7 5.6l19.6 44.6c1.5 3.1 2.9 5.2 6.9 6.3v1.5c-2.1 0-8.8-0.2-10.2-0.2s-7.7 0.2-9.8 0.2v-1.5c2.9-0.6 3.8-2.1 3.8-3.5 0-1.3-0.4-2.5-1-4l-4.2-9.4h-21.7l-3.8 9.6c-0.4 1-1 2.7-1 3.8 0 1.7 0.8 2.9 4.2 3.8v1.5c-1.9 0-6.9-0.2-8.1-0.2l-8.3 0.2zm36.9-21.5-9.2-21.5-8.5 21.5zm-36.9 21.5c3.5-0.8 5.6-3.1 7.1-6.5l18.6-44.4c0.8-1.9 1.7-5.6 1.7-5.6h5.2s0.8 3.8 1.7 5.6l19.6 44.6c1.5 3.1 2.9 5.2 6.9 6.3v1.5c-2.1 0-8.8-0.2-10.2-0.2s-7.7 0.2-9.8 0.2v-1.5c2.9-0.6 3.8-2.1 3.8-3.5 0-1.3-0.4-2.5-1-4l-4.2-9.4h-21.7l-3.8 9.6c-0.4 1-1 2.7-1 3.8 0 1.7 0.8 2.9 4.2 3.8v1.5c-1.9 0-6.9-0.2-8.1-0.2l-8.3 0.2zm36.9-21.5-9.2-21.5-8.5 21.5zm146.3 21.5c3.5-0.8 5.6-3.1 6.9-6.5l18.6-44.4c0.8-1.9 1.7-5.6 1.7-5.6h5.2s0.8 3.8 1.7 5.6l19.6 44.6c1.5 3.1 2.9 5.2 6.9 6.3v1.5c-2.1 0-8.8-0.2-10.2-0.2s-7.7 0.2-9.8 0.2v-1.5c2.9-0.6 3.8-2.1 3.8-3.5 0-1.3-0.4-2.5-1-4l-4.2-9.4h-21.7l-3.8 9.6c-0.4 1-1 2.7-1 3.8 0 1.7 0.8 2.9 4 3.8v1.5c-1.9 0-6.9-0.2-7.9-0.2l-8.5 0.2v-1.8zm36.7-21.5-9.2-21.5-8.5 21.5zm96.8 21.5c3.5-0.6 5.4-2.1 5.4-5.2v-44.4c0-3.1-1.9-4.4-5.2-5v-1.7c1.9 0 8.3 0.2 10 0.2 2.9 0 10.8-0.6 16.9-0.6 20.6 0 32.9 11.5 32.9 29 0 16.9-12.9 29.6-34.2 29.6-6 0-13.6-0.4-16.3-0.4-1.7 0-7.7 0.2-9.6 0.2v-1.7zm14.8-2.9c2.1 0.4 6 0.6 9 0.6 17.3 0 26.3-10.4 26.3-24.8 0-15-9.4-25.6-25.6-25.6-3.3 0-7.5 0.2-9.6 0.6v49.2z"/>
	<path d="m327.3 315.1c0 2.9 1.9 4.6 5.4 5.4v1.7c-1.9 0-8.1-0.2-10-0.2-1.5 0-7.7 0.2-9.6 0.2v-1.7c3.1-0.6 5.2-2.3 5.2-5.4v-44.4c0-2.7-1.5-4.4-5.2-5v-1.7c1.9 0 7.9 0.2 9.8 0.2 2.9 0 10.8-0.4 14-0.4 13.8 0 21.5 5.6 21.5 15.4 0 7.7-5.8 12.9-14.6 15 0 0 2.1 1.3 4 3.5 2.5 2.9 9.4 12.5 12.1 15.8s6.3 7.1 10 7.3v1.3c-1.9 0.4-4.6 0.6-6.9 0.6-4.8 0-8.5-1.7-12.1-6-3.1-3.8-8.8-11.9-12.1-16.1-2.1-2.5-4.4-4.6-9-5.2-0.8-0.2-1.7-0.2-2.7-0.4v20h0.2zm0-23.6c1.9 0.2 4.6 0.4 7.3 0.4 10.8 0 14.2-6.3 14.2-11.7 0-7.7-5.2-12.7-14.6-12.7-1.9 0-4.8 0.2-6.7 0.6v23.3h-0.2z"/>
	<path d="m509.5 315.1c0 2.9 1.9 4.6 5.4 5.4v1.7c-1.9 0-8.1-0.2-10-0.2-1.5 0-7.7 0.2-9.6 0.2v-1.7c3.1-0.6 5.2-2.3 5.2-5.4v-44.4c0-2.7-1.5-4.4-5-5v-1.7c1.9 0 7.9 0.2 9.8 0.2 2.9 0 10.8-0.4 14-0.4 13.8 0 21.5 5.6 21.5 15.4 0 7.7-5.8 12.9-14.6 15 0 0 2.1 1.3 4 3.5 2.5 2.9 9.2 12.5 11.9 15.8s6.3 7.1 10 7.3v1.3c-1.9 0.4-4.6 0.6-6.9 0.6-4.8 0-8.5-1.7-12.1-6-3.1-3.8-8.5-11.9-11.7-16.1-2.1-2.5-4.4-4.6-9-5.2-0.8-0.2-1.7-0.2-2.7-0.4v20h-0.2zm0-23.6c1.9 0.2 4.6 0.4 7.3 0.4 10.8 0 14.2-6.3 14.2-11.7 0-7.7-5.2-12.7-14.6-12.7-1.9 0-4.8 0.2-6.7 0.6v23.3h-0.2z"/>
	<path class="st0" d="m418.6 371.6h0.8c0.4 1.7 1.5 3.1 2.7 4.2 1.5 1 3.5 1.5 5.4 1.5 4 0 6.5-1.9 6.5-5s-3.1-4.6-6.9-6.5c-2.9-1.5-8.5-3.5-8.5-9.2 0-5 4-8.3 10-8.3 4 0 6 1 8.8 0.8v6h-1c-1-3.5-4.4-4.8-7.9-4.8-4 0-5.6 2.3-5.6 4.6 0 3.3 3.8 5.2 7.1 6.9 4.2 1.9 8.5 4 8.5 9.2 0 5-3.8 8.3-10.8 8.3-4.2 0-6.7-1-9-1.5v-6.2z"/>
	<path class="st0" d="m481.6 377.8c1.5-0.4 2.3-1 2.3-2.5v-23.1c0-1.5-0.8-2.1-2.3-2.5v-0.8c0.6 0 4 0.2 4.8 0.2s4.2-0.2 5-0.2v0.8c-1.5 0.4-2.5 1-2.5 2.5v9.6h17.1v-9.6c0-1.7-0.8-2.3-2.3-2.5v-0.8c0.8 0 4 0.2 5 0.2 0.8 0 4-0.2 4.8-0.2v0.8c-1.5 0.4-2.5 1-2.5 2.5v23.1c0 1.5 1 2.1 2.5 2.5v0.8h-4.8-5v-0.8c1.5-0.4 2.3-1 2.3-2.5v-11h-17.1v10.8c0 1.7 1 2.1 2.5 2.5v0.8h-5-4.8z"/>
	<path class="st0" d="m473.2 371.2-0.4 6.7c-2.3-0.2-5.4 1.5-10.6 1.5-11 0-16.1-6.7-16.1-15.4 0-9.2 6.5-15.6 15.8-15.6 4.6 0 7.5 1.7 10.4 1.5l0.2 6.7h-0.8c-1.7-4-5.6-5.8-9.8-5.8-6.9 0-10.6 6-10.6 13.3 0 6 2.9 13.3 11.3 13.3 4.6 0 8.1-1.7 9.6-6h1z"/>
	<path class="st0" d="m520.7 363.9c0-8.5 6-15.6 15.4-15.6s15.4 7.1 15.4 15.6-6 15.4-15.4 15.4c-9.5 0-15.4-6.9-15.4-15.4zm25.5 0c0-6.9-3.1-13.6-10-13.6-7.1 0-10.2 6.5-10.2 13.6 0 6.9 3.1 13.3 10.2 13.3 6.9 0 10-6.4 10-13.3z"/>
	<path class="st0" d="m558.3 363.9c0-8.5 6-15.6 15.4-15.6s15.4 7.1 15.4 15.6-6 15.4-15.4 15.4c-9.6 0-15.4-6.9-15.4-15.4zm25.4 0c0-6.9-3.1-13.6-10-13.6-7.1 0-10.2 6.5-10.2 13.6 0 6.9 3.1 13.3 10.2 13.3 6.9 0 10-6.4 10-13.3z"/>
	<path class="st0" d="m219.9 348.9h18.8c0.6 0 1.7 0 2.1-0.4h0.8l-0.2 6h-0.8c-0.6-1.9-1.7-3.3-5.4-3.3h-7.9v10.8h6.5c0.8 0 2.1 0 2.5-0.2 1.5-0.2 2.1-1 2.3-2.3h0.8v3.5 3.8h-0.8c-0.4-1.3-1-2.1-2.3-2.5-0.4-0.2-1.7-0.2-2.5-0.2h-6.5v12.1h9c3.8 0 5-1.7 5.8-4l0.8 0.2-0.8 6.3c-2.9-0.2-4.6-0.2-7.7-0.2h-9.6c-0.8 0-4.2 0.2-5.2 0.2v-0.8c1.7-0.4 2.7-1 2.7-2.7v-22.9c0-1.5-0.8-2.3-2.7-2.7v-0.6h0.3z"/>
	<path class="st0" d="m291.6 352.4c0-1.5-0.8-2.3-2.7-2.7v-0.8c1 0 4.4 0.2 5.2 0.2s4.2-0.2 5.2-0.2v0.8c-1.9 0.4-2.7 1-2.7 2.7v22.7c0 1.5 0.8 2.3 2.7 2.7v0.8c-1 0-4.2-0.2-5.2-0.2-0.8 0-4.2 0.2-5.2 0.2v-0.8c1.9-0.4 2.7-1 2.7-2.7z"/>
	<path class="st0" d="m337.7 377.8c1.9-0.4 2.9-1.7 3.5-3.3l9.6-22.9c0.4-1 0.8-2.9 0.8-2.9h2.7s0.4 1.9 0.8 2.9l10 22.9c0.6 1.7 1.5 2.7 3.5 3.3v0.8h-5.2-5v-0.8c1.5-0.4 1.9-1 1.9-1.9 0-0.6-0.2-1.3-0.6-2.1l-2.1-4.8h-11l-1.9 5c-0.2 0.6-0.4 1.5-0.4 1.9 0 0.8 0.4 1.5 2.1 1.9v0.8h-4.2-4.4zm19.2-11.2-4.8-11-4.4 11z"/>
	<path class="st0" d="m333.7 371.2-0.4 6.7c-2.3-0.2-5.4 1.5-10.6 1.5-11 0-16.1-6.7-16.1-15.4 0-9.2 6.5-15.6 15.8-15.6 4.6 0 7.5 1.7 10.4 1.5l0.2 6.7h-0.8c-1.7-4-5.6-5.8-9.8-5.8-6.9 0-10.6 6-10.6 13.3 0 6 2.9 13.3 11.3 13.3 4.6 0 8.1-1.7 9.6-6h1z"/>
	<path class="st0" d="m397.1 372.4c-1 2.3-2.1 4-5.8 4h-9.2v-24c0-1.7 0.8-2.3 2.7-2.7v-0.8c-1 0-4.4 0.2-5.2 0.2s-4.2-0.2-5.2-0.2v0.8c1.9 0.4 2.7 1.3 2.7 2.7v22.7c0 1.7-0.8 2.5-2.7 2.7v0.8c1 0 4.4-0.2 5.2-0.2h9.6c3.1 0 5 0 7.7 0.2l0.8-6.3h-0.6z"/>
	<path class="st0" d="m618.5 372.4c-1 2.3-2.1 4-5.8 4h-9v-24c0-1.7 0.8-2.3 2.7-2.7v-0.8c-1 0-4.4 0.2-5.2 0.2s-4.2-0.2-5.2-0.2v0.8c1.9 0.4 2.7 1.3 2.7 2.7v22.7c0 1.7-0.8 2.5-2.7 2.7v0.8c1 0 4.4-0.2 5.2-0.2h9.6c3.1 0 5 0 7.7 0.2l0.8-6.3h-0.8z"/>
	<path class="st0" d="m251.2 377.8c1.9-0.4 2.7-1 2.7-2.7v-22.9c0-1.7-1-2.3-2.7-2.5v-0.8c1 0 4.4 0.2 5.2 0.2 1.5 0 5.4-0.4 8.5-0.4 10.6 0 17.1 5.8 17.1 15 0 8.8-6.7 15.2-17.5 15.2-3.1 0-6.7-0.2-8.1-0.2-0.8 0-4 0.2-5 0.2v-1h-0.2zm7.5-1.4c1 0.2 2.9 0.2 4.4 0.2 9 0 13.6-5 13.6-12.9 0-7.7-4.8-13.1-13.1-13.1-1.7 0-3.5 0.2-4.8 0.4z"/>
	<path class="st0" d="m208.9 374.5-1.5-22.1c-0.2-1.5 0.6-2.3 2.3-2.7v-0.8h-4-3.1l-9.8 22.9-9.8-22.9h-3.3-4.2v0.8c1.7 0.2 2.5 1.3 2.5 2.7l-1.7 22.1c-0.2 1.7-1 2.9-2.9 3.5v0.8h4.2 4.2v-0.8c-2.1-0.6-2.5-1.7-2.5-3.1l1.3-19.6 10.2 23.6h1.7l10.2-23.6 1.3 19.8c0 1.3-0.4 2.5-2.5 3.1v0.8h5.2 5.2v-0.8c-2-0.8-2.8-1.8-3-3.7z"/>
	<path class="st0" d="m82.7 246.5h-62.1l-0.2 49.6c0 60.9 61.1 99.7 61.7 100.1l0.2 0.2c0.2 0 0.6-0.2 0.6-0.2 10.4-6.9 62.1-43.6 62.1-99.7v-49.8c-0.1-0.2-62.3-0.2-62.3-0.2zm62 44h-123v-7.1h123z"/>
	<path d="m41.5 252.5c4.2-1.7 8.8-0.4 13.3-0.8 1.3 0.2 2.9-0.6 3.8 0.6v4c0.4 1 1.9 0.4 2.5 0.8 0.4 0.2 0.8 0.4 1 1s0 1.3-0.2 1.9c-0.8 0.8-1.9 0.6-3.1 0.8l-0.4 0.4c0.2 2.5-0.4 4.6 0 6.9 0 0.4-0.2 1.3 0.4 1.5 1.3 0 2.3 0 3.1 0.8 0.4 0.6 0.4 1.3 0.2 2.1-0.4 2.5-4.4-0.4-4 2.5 0 1 0.2 2.5-0.2 3.5-4.6 0-9.2-0.4-13.3 0-0.8 0.6-1.7 1-2.9 1.3-0.8-0.2-1.7-0.6-2.3-1.3-4.2-0.2-8.1-0.2-12.1-0.2-1.3-1-0.4-2.9-0.8-4.4-0.6-0.8-1.7-0.2-2.5-0.6-0.6 0-0.8-0.6-1-1 0-0.8 0-1.7 0.6-2.3 0.6-0.4 1.7-0.4 2.5-0.4l0.4-0.4c-0.2-2.7 0.4-5.4-0.2-8.3-0.4-0.6-1.3 0-1.7-0.4-0.6-0.2-1.5-0.6-1.7-1.5-0.2-0.6-0.2-1.3 0.4-1.9 0.8-1 2.5 0.2 3.3-0.8l0.4-4c0.6-1.3 2.1-0.6 3.3-0.6 2.1-0.4 4.6 0 6.7 0 1.7 0 3.2 0.4 4.5 0.8z"/>
	<path class="st1" d="m47.1 296.1-0.2 0.8c0 0.4-0.4 0.8-0.8 0.6l-1.7-0.2c-0.6-0.2-1.3-0.4-1.9-0.2-0.2 0.2-0.6 0.4-1 0.8 0.2 0 0.2 0.2 0.2 0.2 0.4 0.2 1.3 0.4 1.5 1.5 0 0.8 0.4 1.5 0.8 1.9l0.2 0.4c0.2 0.2 0.2 0.4 0.2 0.6s0 0.2-0.2 0.4l-0.8 1-0.4 0.4-0.6 1.5c0.2 0.4 0.4 0.6 0.6 0.6 0.8-0.2 1.5 0 2.1 0l1.3 0.2h0.6c0.4 0 1.3-0.2 1.9 0.2 0 0 0.6 1 0.6 1.3 0.2 0.4 0.2 0.6 0.2 1s0 0.8-0.2 1.3l-0.2 0.6c0 0.2 0 0.4-0.2 0.4-1 1.7-2.5 2.9-4.4 3.8h0.2v0.2c0.2 0.2 0.8 0.2 1.5 0h0.4c0.8 0 1.5-0.2 2.3-0.6l2.3-0.6c0.4-0.2 0.6 0.2 0.8 0.4 0.4 0.8 1 1.5 1.5 1.9l0.4-0.4c0.4-0.4 1.3-1 2.3-0.6 0 0 0.2 0 0.2 0.2 0.8 0.6 1 1.5 1.3 2.1 0.2 0.4 0.2 1 0.6 1.3 0.2 0.2 0.2 0.4 0.2 0.4v0.2c0 0.8-0.8 1.3-1 1.3h-0.2l-0.2 0.2-1.9 0.4c-0.6 0-1.3 0.2-1.7 0.4 0 0 0 0.2 0.2 0.2 0.8 0.4 2.1 0.6 3.3 0.8l0.6 0.2h4c0.4 0 0.4 0.2 0.6 0.4s0 0.6-0.2 0.8l-0.4 0.6-0.2 0.2-4 2.7c-0.2 0-2.3 0.8-2.3 0.8l-3.1 1.3h-0.2c-1.9 0.4-2.9-0.6-4-1.3-0.6-0.6-1.3-1-2.1-1-0.6 0-1.3 0.2-1.7 0.6-0.2 0.2-0.2 0.4-0.2 0.8v0.4h0.2c0.4 0.2 1.3 0.4 1.3 1.5 0 1.5-0.6 2.5-1.3 3.5-0.4 0.8-1 1.9-1 2.7v0.2c0 0.2 0 0.4 0.2 0.4h0.4l0.2-0.4c0.2-0.4 0.6-1 1.5-1.3h0.2c1.7 0.2 2.5 0 3.1-0.6 0.2-0.2 0.4-0.2 0.4-0.2 0.4 0 1 0 1.5 0.4s0.6 0.8 0.6 1.3v0.4c1-0.2 1.7-1 2.5-2.3l0.4-0.6c0.2-0.2 0.4-0.4 0.6-0.4l0.6-0.2c0.8-0.2 1.7-0.6 2.7 0 0.2 0.2 0.4 0.4 0.4 0.6v0.6c0 0.8-0.4 1.5-0.6 2.1 0 0-0.2 0.4-0.2 0.8 1.5-0.4 2.7-1.7 3.8-3.1l0.6-0.8c0.2-0.4 0.6-1.5 1.9-1.5h0.2c0.6 0.2 0.8 0 1.5-1l1.3-1.3c0.2-0.2 0.2-0.2 0.6-0.2h0.4c0.2 0 0.4 0 0.6 0.2s0.2 0.2 0.2 0.4v1.3c0.2 0 0.8-0.4 1.3-0.4l1.7-1c0.2-0.2 0.4-0.2 0.8 0l6.3 1.7c1.3 0.4 1.5 1.3 1.5 2.1v0.6 0.6c0 0.2 0 0.2 0.2 0.4s0.2 0.4 0.2 0.6v0.4c-0.2 0.6-0.8 1.3-2.5 1.3l-3.1 0.2c-2.5 0-5 0-6.9 1.7l-1.7 1.7c-0.2 0.2-0.4 0.2-0.6 0.2-1.3 0-2.1 0.6-3.1 1.3-0.8 0.6-1.9 1.3-3.1 1.5-0.8 0.4-1.9 0.4-2.7 0.4s-1.3 0-1.5 0.2c0.8 1 2.3 1.5 3.8 1.9 0.2 0 0.8 0.2 0.8 0.2 0.6 0 1.7 0 2.1 1v0.4c0 0.8 0.2 1.3 0.6 1.3h0.2c0.2-0.2 1-0.6 2.1 0l3.2 3.2c0.2 0.2 0.2 0.6 0 0.8-0.6 1.3-2.1 1-2.9 1h-1.4c-1.3 0.2-3.1 0.6-4.4-1l0.2 0.2-1.9-0.6c-1-0.8-1.9-1.7-3.1-1.7-1.3 0.4-1.9 0.8-1.9 1.5l0.2 0.4 0.6 0.6c0.2 0.2 0.2 0.4 0.2 0.4v0.2c0 0.2-0.2 0.4-0.4 0.6-1 0.6-2.3 1.7-2.3 2.9v0.4 0.2c0.2 0 0.4-0.2 0.4-0.2 0.4-0.2 1.3-0.4 2.1 0 0.2 0.2 0.4 0.4 0.4 0.6v1c0 1 0.2 1.5 0.4 1.9 0.2 0 0.4-0.2 0.4-0.2 0.6-0.4 1.9-0.8 3.1 0 0.2 0 0.6 0 1.3-0.4l1.3-0.6h0.2c2.1 0 3.1 1.9 3.5 3.1 1 0.8 1.9 1.3 2.5 1v-0.2-0.8c0-0.2-0.2-0.6-0.2-1 0-0.8 0.2-1.7 1.5-2.1 0.2 0 2.1-0.2 2.1-0.2h1.5c1.9 0.2 3.3 0.2 4-1 0 0 1.5-2.3 1.7-2.7 0-0.2 0.2-1.5 0.2-1.5 0-0.4 0.2-0.6 0.6-0.6 0.6-0.2 1.5 0 1.9 0.2 0 0 0.2 0 0.4 0.2-0.4-1-0.6-2.1-0.6-3.1 0-0.6 0-1 0.2-1.7 0.4-1.5 1-2.7 1.9-3.8 0.2-0.2 0.6-0.4 1-0.2l0.4 0.2 0.6 0.6 0.4 2.1c0.2 1.3 0.4 2.5 1 3.8 0 0.2 0.2 0.2 0 0.4l-0.8 2.9-0.6 2.3c-0.6 2.3-2.1 4-4.2 5v0.2h0.8 0.8c2.3-0.2 4.4-1.5 6-3.1 0.2-0.2 0.6-0.4 0.8-0.2 0.4 0.2 0.8 0 1.5-0.4s1.9-1 3.1-0.2c0.4 0.4 1.3 0.4 2.1 0.2 1.3 0 3.3-0.2 3.8 2.1v1.4c0.2 1 0.4 3.1-1.9 3.8h-0.4l-2.3-0.8c-1.9-0.8-2.7-1-3.5 0-0.2 0.2-0.4 0.6-0.4 0.8 0.2 0.6 1 1.9 0 2.9l0.2-0.2-0.2 0.2c-0.6 1-1 1.7-0.6 2.5 0 0 0.2 0.2 0.8 0 0.8-0.4 1.9 0 2.7 0.2l1 0.4c0.2 0 0.4 0.2 0.4 0.2l0.4 0.2c0.8 0.6 1.5 1 2.3 1.3v-0.2l0.4-1c0.2-0.2 1.5-0.8 1.5-0.8 0.8-0.4 1-0.4 1-0.8 0.2-1.5 1.3-2.9 2.7-3.8 0.2 0 0.4-0.2 0.6-0.2 0.4 0 1.5-0.4 1.9-0.8v-0.3l-0.4-0.4c-0.2-0.2-0.2-0.4-0.4-0.4v-0.6c0-1 0.6-1.9 1-2.7 0.4-0.6 0.6-1.3 0.6-1.7 0-0.2 0-0.4-0.2-0.8 0-0.2-0.2-0.2-0.2-0.2l-0.2-1.5c-0.2-1-0.2-1.7-0.8-2.3l-1.7-0.8-0.6-0.6c-0.4-0.2-0.4-0.4-0.4-0.8 0-0.8 0.4-1.3 1.5-1.5h0.2c1-0.4 2.1 0 2.9 0.4 0.8 0.2 1 0.2 1.3 0.2-0.2-0.6-0.8-1.3-1.3-1.9-1-0.6-2.3-1-3.5-1.3-2.1-0.4-4.2-1-5.4-2.9-0.2-0.2-0.2-0.4-0.2-0.6s0-0.4 0.2-0.6l0.2-0.2c0.2-0.2 0.6-0.2 0.8-0.2 2.5 0.6 5 0 6.7-1.5 1-1.3 2.3-2.9 4.2-3.5 1.5-1 1.7-2.9 1.7-5.2 0-1.3 0.6-2.1 1.5-2.9l1.9-0.8c0.6-0.2 0.8-0.2 0.8-0.4-1-0.4-2.3-1-3.3-0.8-0.2 0-0.4 0-0.6-0.2-0.6-0.2-0.6-0.6-0.8-1v-0.2c0-0.6 0.4-1 0.8-1.3l0.4-0.4 1.9-1c2.5-1.5 4.2-2.3 4.2-4.4v-0.2c-0.2 0.2-0.6 0.2-0.8 0.6l-1.7 0.8c-1.3 0.6-2.7 1-4 1.3-1.5 0.2-2.7 0.6-3.8 1.3-0.2 0-0.2 0.2-0.4 0.2-0.4 0-1-0.2-1-0.8v-0.6c0-0.4 0.2-0.8 0.4-1 0.4-0.6 1-1 1.7-1.3 0.8-0.4 1.3-0.6 1.5-1.3l0.2-0.6c0.4-1 0.8-2.5 2.3-3.1 0.2 0 1.3-0.6 1.3-0.6 0.2 0 0.4-0.2 0.4-0.2l-0.2-0.2c-2.1-0.6-4.2 1-5.4 2.1l-0.2 0.2-1 0.2c-1.5 0.6-2.9 1.3-3.8 2.3 0 0.2-0.2 0.2-0.4 0.2-0.4 0.2-0.8 0-1.3-0.2-0.4-0.2-0.6-0.6-0.6-1-0.4-3.3 2.3-5.8 4.4-7.7l0.4-0.4 0.4-0.2 1.3-0.6c1-0.6 2.3-1.5 4-0.6 1.3 0.6 2.3 1 3.3 0.8 0.6-0.2 1-0.8 1.7-1.7 0.4-0.6 1-1.5 1.9-2.1 0.8-0.4 1.7 0 2.3 0 0.2 0 0.8 0.2 0.8 0.2l0.2-0.2v-0.6c0-0.6-0.4-1.3-1-2.1l-0.8-1c-0.2-0.2-0.2-0.2-0.2-0.4v-0.4c0.2-0.6 0.4-1.3 0.4-2.1 0-1.7-0.6-3.1-1.9-4.2-0.4-0.2-1.3-0.6-2.1-0.6 0 0.2 0.2 0.4 0.2 0.4l0.8 1.7v0.6c0 3.8-3.1 5.4-5.8 6.7l-2.3 1.3c-5.2 2.7-12.1 6.9-12.5 13.8 0 3.5 1.5 6.9 4.4 9.8 0 0 0 0.2 0.2 0.2l1 1.5c1 1.7 2.3 3.3 2.3 5.6 0 0.4 0 1-0.2 1.7-0.8 2.1-3.3 2.1-4.2 2.1-5.2-0.4-7.9-5.6-10-9.4l-0.4-0.6-0.4-0.8c-0.6-1.3-1.3-2.5-1.3-4 0-0.2 0-0.6 0.2-0.6 0.2-0.2 0.8-0.8 1.9-0.2 0.2 0 1 1.5 1 1.5 0.2 0.2 0.2 0.4 0.2 0.6 0-0.2 0.2-0.4 0.2-0.8 0-0.8-0.4-1.9-0.8-2.9l-0.2-0.2c-0.2-0.4-0.8-1-1.5-1.5-0.8-0.6-1.7-1.5-2.1-2.5v-0.2-0.2c0-1.3 1-1.5 1.5-1.7h0.2c-0.4-1.3-0.6-2.7-0.6-4.2 0-0.6 0-1.5 0.2-2.1l1.3-1.3c0.4-0.2 0.4-0.2 0.4-0.4-0.4-1.5-0.4-3.1-0.4-4.6v-1.9c0-0.2 0.4-1.5 0.4-1.5 0.2-0.6 0.4-1 0.4-1.5v-0.4c-0.8-0.4-1-1.5-1-1.9v-0.4h0.2c-2.1 0-4-0.8-5.6-1.7l-1.7-0.8c-0.4-0.2-0.8 0-1.5 0.4l-1 0.4-1 0.2c-1 0.2-2.1 0.4-2.7 1-0.4 0.4-0.4 1-0.4 1.9v0.8c-0.2 0.6-0.6 0.8-0.8 0.8-0.6 0.2-1 0-1.5-0.2h-0.2c-1.7-0.8-2.3-2.5-1.9-4.2 0-0.2-0.2-0.6-0.2-0.6-0.4-0.2-1.3-0.4-1.9-0.2-0.4 0.2-0.8 0.6-1 1.7 0 0-0.2 0.2-0.2 0.4v0.2c0 0.6 0.2 1.3 0.4 1.5 0.6 0.6 1.7 1.3 2.9 1.9l2.7 1.5c0.2 0.2 0.2 0.2 0.2 0.4s0.2 0.6 0.2 0.8c0 1-0.4 1.7-0.8 2.3 0.2 0.2 0.8 0.6 0.8 1.5v0.4c0 0.4-0.4 0.6-0.6 0.6-1.7 0.4-3.1 0-4.4-0.8l-0.8-1c-0.2-0.4-0.4-0.6-0.6-0.6 0 0-0.2 0.4-0.2 0.6l-0.4 0.8v0.6c0 0.6-0.2 1.5-0.8 2.1-0.2 0.2-0.4 0.2-0.6 0.2h-0.8c-3.3-1-6.3-2.7-9.6-5.2-1.5-1-2.5-2.5-3.5-4l-0.8-1-0.2-0.2-0.2-1c-0.6-2.1-1-3.3-2.5-3.8-1.3-0.5-1.5-0.5-1.5-0.5zm2.1 12.1m-6.5-1.4h0.4-0.4zm30 1.2c0.2-0.2 0.2-0.2 0.2-0.4 0 0-0.2 0.2-0.2 0.4zm16.1 11.1s0.2 0 0 0c0.2 0 0.2 0 0 0 0.2 0 0 0 0 0zm-19.8 13.7m0.2 0.2v0 0zm-17.7 5.2m29.6 17.8v0.2zm1 8.7h0.2z"/>
	<path class="st2" d="m21.2 296.1v-49.6h124v49.8c0 62.8-62.5 99.7-62.5 99.7s-61.5-38.6-61.5-99.9z"/>
	<path d="m107.8 368.5c-0.4-0.4-0.8-1-1-1.3-0.4-2.3 2.9-3.8 1.3-6-0.4-1.5 0-3.1-1.5-4.2-1-0.8-2.3-1-3.3-1.7 0-0.6 0.8-0.4 1-0.6 1.9-0.4 3.3 1.7 4.8 0 0.2-1.3-1-2.3-1.9-3.1-2.7-1.9-6.7-1-8.8-4l0.2-0.2c2.5 0.6 5.4 0 7.3-1.7 1-1.5 2.3-2.9 4-3.3 1.9-1.5 2.1-3.8 2.1-5.8 0-0.8 0.4-1.7 1-2.3 1-0.8 3.5-0.6 2.9-2.5-1.5-0.8-2.9-1.5-4.4-1.3-0.8-0.4 0.2-1 0.4-1.3 2.5-1.7 6.7-2.7 6.5-6.7-0.2-0.4-0.2-1-0.8-1-1 0.2-1.9 1.3-2.9 1.7-2.5 1.5-5.4 1-7.9 2.5-0.4 0-0.4-0.6-0.2-0.8 0.8-1.3 2.7-1.3 3.3-2.9 0.4-1.3 0.6-2.9 2.1-3.3 0.8-0.6 2.1-0.6 2.5-1.7 0-0.6-0.8-0.8-1.3-1-2.3-0.6-4.6 0.6-6.3 2.3-1.7 0.8-3.8 1.5-5 2.7-0.2 0-0.6 0-0.6-0.4-0.4-3.3 2.5-5.6 4.8-7.5 1.5-0.4 2.9-2.3 4.6-1.5 1.3 0.6 2.5 1.3 4 0.8 1.9-0.6 2.1-2.7 3.8-3.8 1.3-0.4 2.9 1.5 3.8-0.4 0.4-1.9-1-2.9-1.9-4.2 1-2.5 0.2-5.4-1.9-7.3-1-0.6-2.3-1-3.3-0.6-0.8 1 0.8 1.9 0.8 2.9 0.4 4.6-4.6 5.6-7.7 7.7-5.6 2.9-12.5 7.3-12.9 14.6 0 4 1.9 7.7 4.6 10.4 1.5 2.5 3.8 4.8 2.9 8.1-0.6 1.3-2.1 1.5-3.3 1.5-4.8-0.4-7.5-5.8-9.6-9.6-0.6-1.5-1.5-2.9-1.7-4.6 0.2-0.2 0.4-0.2 0.8 0 0.8 0.8 0.8 2.7 2.3 2.5 1.3-1.7 0.4-3.8-0.4-5.4-0.8-1.5-2.7-2.3-3.5-4 0-1.3 1.7-0.4 1.9-1.7-0.6-2.1-0.8-4.4-0.4-6.3 0.4-0.8 1.7-0.8 1.7-1.9-0.6-2.1-0.6-4-0.4-6.3 0.2-1.3 1.3-2.7 0.6-4-1.5-0.4-0.2-2.3-1.7-2.5-2.7 0-4.8-1.5-7.1-2.3-1.3-0.4-2.1 0.4-3.1 0.6-1.5 0.4-3.1 0.4-4.2 1.5-0.8 0.8-0.6 1.9-0.6 3.1-0.2 0.6-0.8 0-1.3 0-1-0.6-1.5-1.9-1.3-3.1 0.2-0.6 0-1-0.6-1.5-0.8-0.4-1.9-0.8-2.7-0.4-1 0.4-1.5 1.7-1.9 2.7 0 0.8 0 1.9 0.4 2.5 1.7 1.7 4 2.3 5.6 3.8 0.4 1-0.4 1.9-1 2.7 0 0.8 1.3 0.8 1 1.7-1.3 0.4-2.5 0-3.5-0.8-0.6-0.6-0.8-1.9-1.9-1.9s-1 1.3-1.5 1.9c-0.4 0.8 0 1.9-0.8 2.5h-0.7c-3.3-1-6.3-2.9-9.2-5.2-1.7-1.3-2.9-3.3-4.2-5-0.6-2.1-1-4.8-3.5-5.4-0.6 0-1.3 0.2-1.5 0.8l-0.2 0.8c-1.3 0-2.5-0.8-4-0.4-0.6 0.4-1.3 0.8-1.7 1.5 0 1.5 1.7 0.8 1.9 2.1 0 1 0.8 1.9 1.3 2.7-0.4 0.6-1 0.8-1.3 1.5l-0.8 2.1c0.4 0.6 0.8 1.5 1.5 1.5 1-0.4 2.1 0.4 3.3 0.2 0.8 0 1.9-0.6 2.1 0.6 0.4 1 0 1.9 0 2.7-1 1.5-2.5 2.7-4 3.3-0.4 0.4-0.4 1-0.4 1.5 0.6 0.8 1.9 0.4 2.7 0.4 1.7 0 2.9-1 4.6-1.3 0.4 0.8 1 1.9 1.9 2.3 1.3 0.4 1.7-1.5 2.9-1 1 0.8 0.8 2.3 1.7 3.3 0 0.6-0.4 0.6-0.8 0.8-1.5 0.4-3.3 0-4.4 1-0.2 0.6 0.4 1.3 0.8 1.5 1.3 0.6 2.7 0.8 4.2 1 1.3 0.2 2.7-0.4 4 0l-0.4 0.6-4 2.7c-1.9 0.8-3.8 1-5.4 2.1-2.5 0.6-3.5-2.5-5.8-2.3-1 0-1.7 0.4-2.3 0.8-0.6 0.6-0.6 1.5-0.4 2.3 0.4 0.8 1.5 0.4 1.5 1.3 0 2.3-2.1 4-2.3 6.3 0 0.6 0 1.3 0.8 1.5 0.4 0.2 1 0 1.5-0.2 0.4-0.4 0.4-1.3 1.3-1.5 1.5 0.2 2.9 0.2 3.8-0.8 0.4 0 1 0.4 1 0.8 0 0.6 0 1.3 0.6 1.5 2.1 0 2.9-2.1 4-3.5 0.8-0.2 1.9-0.8 2.7-0.2 0.4 1.5-0.8 2.3-1 3.8 0 0.4 0.4 0.6 0.8 0.6 2.5-0.4 3.8-2.5 5.2-4.4 0.2-0.4 0.4-1 1.3-1 1.9 0.6 2.3-1.7 3.5-2.5h0.4c0.2 0.6-0.2 1 0 1.5 0.8 0.8 1.7 0 2.5-0.2l1.7-1c2.1 0.6 4.2 1 6.3 1.7 1.7 0.6 0 2.5 1 3.5-0.2 0.6-1 0.8-1.7 0.8-3.5 0.4-7.7-0.4-10.6 2.1l-1.7 1.7c-2.7 0-4 2.3-6.5 2.7-1.7 1-4.2-0.4-5.2 1.5 0.8 1.7 2.9 2.3 4.6 2.7 0.8 0.4 1.9 0 2.3 0.8 0 0.8 0.2 1.9 1.3 2.1 0.6 0.2 1-0.8 1.9-0.2 0.8 1.3 2.3 1.9 2.9 2.9-0.6 1-1.9 0.4-2.9 0.4h-0.2c-1.5 0.2-3.3 0.8-4.4-0.4-1.5-1-2.7-2.9-5-2.9-1.3 0.4-2.5 0.8-2.7 2.1-0.2 0.8 0.6 1 1 1.7-1.5 1-2.9 2.5-2.5 4.4 0.2 0.4 0.4 0.8 0.8 0.8 0.8 0 1.3-0.6 2.1-0.2 0.2 1.3-0.2 3.1 1.3 3.8 1-0.2 1.9-1.5 3.1-0.4 1.3 0.6 2.1-0.6 3.3-0.8 1.7 0 2.3 1.7 2.9 2.9 1 0.8 2.5 2.1 4 1.3 1-1.5-0.8-3.1 1-4 1-0.4 2.1 0 3.3-0.2 1.9 0.2 4 0.4 5-1.7l1.7-2.7 0.4-1.7c1-0.4 2.5 1.5 3.1-0.2-0.6-1.7-0.8-3.3-0.4-5 0.4-1.3 0.8-2.3 1.7-3.1l0.4 0.2c0.4 2.1 0.6 4 1.5 5.8-0.2 1.9-1 3.5-1.5 5.4-0.4 1.9-1.9 3.5-3.8 4.4-0.4 0.4-0.8 0.8-0.4 1.5 0.4 0.8 1.7 0.4 2.5 0.6 2.5-0.4 4.8-1.5 6.7-3.3 1.9 0.4 2.7-1.7 4.4-0.8 1.7 1.3 4.8-1 5.4 1.9-0.2 1.3 1 3.5-1 4.2-2.1-0.4-4.6-3.1-6.7-0.6-0.4 0.4-0.8 1-0.4 1.9 0.4 0.6 0.8 1.3 0.2 1.9-0.6 1-1.5 2.3-0.8 3.3 0.4 0.6 1.3 0.6 1.9 0.6 1.3-0.4 2.3 0.6 3.5 0.6 1 0.8 2.1 1.9 3.5 1.7 0.6-0.4 0.4-1 0.8-1.5 0.8-0.8 2.7-0.6 2.7-2.3 0.2-1.3 1.3-2.3 2.3-2.9 0.3-0.9 2.8-1.5 3.5-2.5z"/>
	<path class="st3" d="m107.8 368.5c-0.4-0.4-0.8-1-1-1.3-0.4-2.3 2.9-3.5 1.3-6-0.4-1.5 0-3.1-1.5-4.2-1-0.8-2.3-1-3.3-1.7 0-0.6 0.8-0.4 1-0.6 1.9-0.4 3.3 1.7 4.8 0 0.2-1.3-1-2.3-1.9-3.1-2.7-1.9-6.7-1-8.8-4l0.2-0.2c2.5 0.6 5.4 0 7.3-1.7 1-1.5 2.3-2.9 4-3.3 1.9-1.5 2.1-3.8 2.1-5.8 0-0.8 0.4-1.7 1-2.3 1-0.8 3.5-0.6 2.9-2.5-1.5-0.8-2.9-1.5-4.4-1.3-0.6-0.4 0.2-1 0.4-1.3 2.5-1.7 6.7-2.7 6.5-6.7-0.2-0.4-0.2-1-0.8-1-1 0.2-1.9 1.3-2.9 1.7-2.5 1.5-5.4 1-7.9 2.5-0.4 0-0.4-0.6-0.2-0.8 0.8-1.3 2.7-1.3 3.3-2.9 0.4-1.3 0.6-2.9 2.1-3.3 0.8-0.6 2.1-0.6 2.5-1.7 0-0.6-0.8-0.8-1.3-1-2.3-0.6-4.6 0.6-6.3 2.3-1.7 0.8-3.8 1.5-5 2.7-0.2 0-0.6 0-0.6-0.4-0.4-3.3 2.5-5.6 4.8-7.5 1.5-0.4 2.9-2.3 4.6-1.5 1.3 0.6 2.5 1.3 4 0.8 1.9-0.6 2.3-2.7 3.8-3.8 1.3-0.4 2.9 1.5 3.8-0.4 0.4-1.9-1-2.9-1.9-4.2 1-2.5 0.2-5.4-1.9-7.3-1-0.6-2.3-1-3.3-0.6-0.8 1 0.8 1.9 0.8 2.9 0.4 4.6-4.6 5.6-7.7 7.7-5.6 2.9-12.5 7.3-12.9 14.6 0 4 1.9 7.7 4.6 10.4 1.5 2.5 3.8 4.8 2.9 8.1-0.6 1.3-2.1 1.5-3.3 1.5-4.8-0.4-7.5-5.8-9.6-9.6-0.6-1.5-1.5-2.9-1.7-4.6 0.2-0.2 0.4-0.2 0.8 0 0.8 0.8 0.8 2.7 2.3 2.5 1.3-1.7 0.4-3.8-0.4-5.4-0.8-1.5-2.7-2.3-3.5-4 0-1.3 1.7-0.4 1.9-1.7-0.6-2.1-0.8-4.4-0.4-6.3 0.4-0.8 1.7-0.8 1.7-1.9-0.6-2.1-0.6-4-0.4-6.3 0.2-1.3 1.3-2.7 0.6-4-1.5-0.4-0.2-2.3-1.7-2.5-2.7 0-4.8-1.5-7.1-2.3-1.3-0.4-2.1 0.4-3.1 0.6-1.5 0.4-3.1 0.4-4.2 1.5-0.8 0.8-0.6 1.9-0.6 3.1-0.2 0.6-0.8 0-1.3 0-1-0.6-1.5-1.9-1.3-3.1 0.2-0.6 0-1-0.6-1.5-0.8-0.4-1.9-0.6-2.7-0.4-1 0.4-1.5 1.7-1.9 2.7 0 0.8 0 1.9 0.4 2.5 1.7 1.7 4 2.3 5.6 3.8 0.4 1-0.4 1.9-1 2.7 0 0.8 1.3 0.8 1 1.7-1.3 0.4-2.5 0-3.5-0.8-0.6-0.6-0.8-1.9-1.9-1.9s-1 1.3-1.5 1.9c-0.4 0.8 0 1.9-0.8 2.5h-0.7c-3.3-1-6.3-2.9-9.2-5.2-1.7-1.3-2.9-3.3-4.2-5-0.6-2.1-1-4.8-3.5-5.4-0.6 0-1.3 0.2-1.5 0.8l-0.2 0.8c-1.3 0-2.5-0.8-4-0.4-0.6 0.4-1.3 0.8-1.7 1.5 0 1.5 1.7 0.8 1.9 2.1 0 1 0.8 1.9 1.3 2.7-0.4 0.6-1 0.8-1.3 1.5l-0.8 2.1c0.4 0.6 0.8 1.5 1.5 1.5 1-0.4 2.1 0.4 3.3 0.2 0.8 0 1.9-0.6 2.1 0.6 0.4 1 0 1.9 0 2.7-1 1.5-2.5 2.7-4 3.3-0.4 0.4-0.4 1-0.4 1.5 0.6 0.8 1.9 0.4 2.7 0.4 1.7 0 2.9-1 4.6-1.3 0.4 0.8 1 1.9 1.9 2.3 1.3 0.4 1.7-1.5 2.9-1 1 0.8 0.6 2.3 1.7 3.3 0 0.6-0.4 0.6-0.8 0.8-1.5 0.4-3.3 0-4.4 1-0.2 0.6 0.4 1.3 0.8 1.5 1.3 0.6 2.7 0.8 4.2 1 1.3 0.2 2.7-0.4 4 0l-0.4 0.6-4 2.7c-1.9 0.8-3.8 1-5.4 2.1-2.5 0.6-3.5-2.5-5.8-2.3-1 0-1.7 0.4-2.3 0.8-0.6 0.6-0.6 1.5-0.4 2.3 0.4 0.8 1.5 0.4 1.5 1.3 0 2.3-2.1 4-2.3 6.3 0 0.6 0 1.3 0.6 1.5 0.4 0.2 1 0 1.5-0.2 0.4-0.4 0.4-1.3 1.3-1.5 1.5 0.2 2.9 0.2 3.8-0.8 0.4 0 1 0.4 1 0.8 0 0.6 0 1.3 0.6 1.5 2.1 0 2.9-2.1 4-3.5 0.8-0.2 1.9-0.8 2.7-0.2 0.4 1.5-0.8 2.3-1 3.8 0 0.4 0.4 0.6 0.8 0.6 2.5-0.4 3.8-2.5 5.2-4.4 0.2-0.4 0.4-1 1.3-1 1.9 0.6 2.3-1.7 3.5-2.5h0.4c0.2 0.6-0.2 1 0 1.5 0.8 0.8 1.7 0 2.5-0.2l1.7-1c2.1 0.6 4.2 1 6.3 1.7 1.7 0.6 0 2.5 1 3.5-0.2 0.6-1 0.8-1.7 0.8-3.5 0.4-7.7-0.4-10.6 2.1l-1.7 1.7c-2.7 0-4 2.3-6.5 2.7-1.7 1-4.2-0.4-5.2 1.5 0.8 1.7 2.9 2.3 4.6 2.7 0.8 0.4 1.9 0 2.3 0.8 0 0.8 0.2 1.9 1.3 2.1 0.6 0.2 1-0.8 1.9-0.2 0.8 1.3 2.3 1.9 2.9 2.9-0.6 1-1.9 0.4-2.9 0.4h-0.2c-1.5 0.2-3.3 0.8-4.4-0.4-1.5-1-2.7-2.9-5-2.9-1.3 0.4-2.5 0.8-2.7 2.3-0.2 0.8 0.6 1 1 1.7-1.5 1-2.9 2.5-2.5 4.4 0.2 0.4 0.4 0.8 0.8 0.8 0.8 0 1.3-0.6 2.1-0.2 0.2 1.3-0.2 3.1 1.3 3.8 1-0.2 1.9-1.5 3.1-0.4 1.3 0.6 2.3-0.6 3.3-0.8 1.7 0 2.3 1.7 2.9 2.9 1 0.8 2.5 2.1 4 1.3 1-1.5-0.8-3.1 1-4 1-0.4 2.1 0 3.3-0.2 1.9 0.2 4 0.4 5-1.7l1.7-2.7 0.4-1.7c1-0.4 2.5 1.5 3.1-0.2-0.6-1.7-0.8-3.3-0.4-5 0.4-1.3 0.8-2.3 1.7-3.1l0.4 0.2c0.4 2.1 0.6 4 1.5 5.8-0.2 1.9-1 3.5-1.5 5.4-0.4 1.9-1.9 3.5-3.8 4.4-0.4 0.4-0.8 0.8-0.4 1.5 0.4 0.8 1.7 0.4 2.5 0.6 2.5-0.4 4.8-1.5 6.7-3.3 1.9 0.4 2.7-1.7 4.4-0.8 1.7 1.3 4.8-1 5.4 1.9-0.2 1.3 1 3.5-1 4.2-2.1-0.4-4.6-3.1-6.7-0.6-0.4 0.4-0.8 1-0.4 1.9 0.4 0.6 0.8 1.3 0.2 1.9-0.6 1-1.5 2.3-0.8 3.3 0.4 0.6 1.3 0.6 1.9 0.6 1.3-0.4 2.3 0.6 3.5 0.6 1 0.8 2.1 1.9 3.5 1.7 0.6-0.4 0.4-1 0.8-1.5 0.8-0.8 2.7-0.6 2.7-2.3 0.2-1.3 1.3-2.3 2.3-2.9 0.5-1.1 3-1.7 3.7-2.7z"/>
	<path class="st1" d="m70.6 297.4c-0.2 1-0.2 2.1 0.4 2.9 1.7 1.9 4.4 2.5 5.4 4.6h-0.6c-2.1-1.3-4-2.9-6-3.8-0.8-0.6-1.5-1.5-1.3-2.5 0.2-0.6 0.4-1.5 1.3-1.7 0.4-0.2 0.8 0.1 0.8 0.5z"/>
	<path class="st1" d="m87.9 299.2c0.4 0.4 0 1.5 1 1.7 0.2 0 0.4 0.2 0.4 0.4 0 0.8-0.2 1.7-0.4 2.5-0.2 0.6-1 0.8-1 1.9 0 0.4 0.6 0.6 0.8 1.3v3.3c-2.1 0.6-1 3.1-1.3 4.4-0.2 1 0 2.1 0 3.1-0.4 0.2-1.5 0.2-1.7 0.8 0 1.3 0.6 2.3 1 3.1 0.8 1 2.3 1.3 2.3 2.7-1 0-2.1-0.6-2.9-1-1.5-0.8-2.5-2.5-3.5-4-0.2-0.2-0.6-0.2-0.8 0-0.2 1-0.2 2.3-1 2.9-1-0.6-1-3.3-2.7-2.5-0.6 3.5-2.9 6.3-5 9.2-0.4 0.2-0.6 0.8-1.3 0.8 1-2.7 1.9-5.8 0.8-9-0.2-0.6-0.8-0.4-1.3-0.2-0.4 0.4-0.8 1-1.5 0.8-0.6-0.8 0.6-2.3-0.8-2.9-1 0.2-1.9 1.3-2.7 1.7-2.5 1.5-5.4 2.1-8.3 2.1-0.6 0-1-0.2-1.5-0.4 0.6-0.8 1.9-0.8 2.7-1.5 3.3-2.1 5.6-5.8 8.3-8.5-0.2-1.3-1.3-2.7-0.2-3.8 0.8 0 1.3 1 1.9 1.3 1.3 0.6 2.7 1 4 0.4 1-0.2 1.9-1.3 2.1-2.3 0-0.4-0.2-0.8-0.6-0.8s-0.6 0-0.8-0.4c0-0.6 0.4-1 0.8-1 1.5 0 2.7 2.9 3.8 0.6 0.6-1.9-1.3-3.3-2.5-4.6-0.4-0.4-0.6-0.8-0.4-1.5 1-0.6-0.2-1.5 0.6-2.3 1.5-1 3.5-0.4 5-1.5 2.6 1 4.5 2.8 6.7 3.2z"/>
	<path class="st1" d="m49.4 298.6c0 0.4 0.2 0.8 0 1-0.4 0.4-0.8 0-1-0.2-0.4-0.4-0.6-1-0.6-1.5 0.1-1.6 1.6 0.1 1.6 0.7z"/>
	<path class="st1" d="m48.1 300.9c2.3 1 3.8 3.3 5.4 5.2 3.5 2.9 7.3 5.4 11.5 6.7 0.2 0.6-0.4 1.3-0.8 1.7-1.5 1.5-2.5 3.1-4 4.4h-0.8c-1.5-1.5-1.3-4.2-3.8-4.4-0.8 0-1.5 1-2.3 0.4s0.2-2.1-1-2.5c-1.5 0.6-2.5 2.1-4.2 1.9 1-1.9 2.9-3.8 1.9-6-0.2-1-0.8-2.3-1.9-2.5-1 0-1.5 1-2.5 0.6-0.4-0.8-2.3-0.4-1.5-1.7 0.6-1 2.9-1 2.1-2.7-0.6-0.8-2.3-0.4-2.3-1.7 0.2-0.6-0.4-1.7 0-2.1 1.9-0.4 3.2 1.7 4.2 2.7z"/>
	<path class="st1" d="m119.4 302c0.2 1.3-1 2.1-0.6 3.3 0.4 0.6 1.5 0.8 1.3 1.5-3.1 0-3.8 4.2-6.7 4-1.3-0.2-2.3-1.7-3.8-1-4 1.9-8.3 4.6-9.4 9.4-0.4 1.9-0.4 3.8 1 5.2 0.4 0.2 0.8 0.2 1 0 0.8-1.5 1.5-3.3 3.3-3.8 1-0.4 2.3-0.8 3.3-1.5 0.2 0 0.4-0.2 0.4 0.2-0.4 1.5-1 3.1-2.7 3.5-1 1-2.3 2.1-2.3 3.5 0 0.6-0.2 1.7 0.4 2.3 0.6 0.4 1.3-0.2 1.7-0.4 2.1-2.5 5.2-2.9 8.3-3.1 0.2 0.2-0.2 0.8-0.6 0.8-2.7 0.8-5.2 3.1-6 5.8 0 0.4 0.4 0.8 0.6 0.8 1.3-0.2 2.3-1 3.8-0.8 0.4 0.8-1 0.8-1.5 1.7-2.5 2.3 0 7.1-4.2 7.9-1.3 0.4-1 1.9-1.9 2.5-1.5 1.9-3.8 2.3-5.8 2.1-1.7 0.2-2.9-2.1-4.4-0.6 0.2 1.7 1.5 2.5 2.3 4 2.1 1.9 4.8 2.1 7.5 2.9 0.4 0 0.6 0.4 0.8 0.6 0 0.6-0.8 0.4-1.3 0.4-1.7 0.2-3.5 0.4-5.2-0.2-0.2 0-0.4 0.2-0.6 0.4 0.2 1.9 2.3 2.5 3.5 3.3 1.3 0.6 2.9 0.4 3.3 1.9v1.9c0.6 0.8 0.8 2.1 0.6 3.1-1 1.3-1.9 2.9-1 4.8-0.4 0.4-1.3 0-1.7 0.4-0.6 1.3-2.1 1.5-2.5 2.5 0 1-0.6 1.9-1.7 2.1-0.8 0-1.5 0.4-2.1 0.2-0.4-0.6 0.2-1.5-0.6-1.9-1-0.2-1.5 1.5-2.7 0.8-0.6-0.4-1-0.6-1.5-1 0-0.8 0.6-1 1-1.3 2.7-0.4 6.3-0.8 7.1-3.8 0.2-1.5-0.4-2.5-0.2-3.8-0.4-1.5-1.9-2.5-3.5-2.7-1.5-0.4-3.1 0.2-4.2-0.8-0.4-0.4-0.8-0.6-1.5-0.4-0.4 0-0.6 0.6-1 0.4-0.4-0.4-1-1-1.5-0.4-1 1.9-2.5 4-4.8 4.4-0.4-0.6 0.4-1.3 0.6-1.9 0.6-1.5 1.3-3.3 1.7-5 0.6-0.8 1.5-2.1 0.8-3.3-1-2.7-2.1-5.8-1.3-9 0.6-3.8-0.4-7.3-3.1-9.8-1.5-0.8-2.9-2.5-4.8-2.7-1.3-0.4-2.9 0-3.8-1 0.2-1.3 1.5-2.1 2.1-3.1l2.1-3.3c0.8-0.2 0.6 1 1.5 1 1.7 0 1.7-2.9 3.3-1.9 0.8 1 2.1 1.5 2.9 2.5 1 4.6 2.9 9.2 6 12.7 2.5 3.1 6.3 5.4 10 4.4 1-0.8 2.5-1.9 2.7-3.3 1-7.3-8.3-11-7.7-18.3 0.6-6.9 7.7-10.6 13.3-13.3 3.1-1.7 6.9-3.8 7.3-7.7 0-0.4 0-0.6 0.2-1 2.5 0.4 2.3 1.8 2.5 2.9z"/>
	<path class="st1" d="m69 323.8c0.8 0.2 1.9-1 2.3 0.2-0.2 1.7-0.2 3.8-1 5.2-0.8 0.8-2.1 0.2-2.9 0.6-1.3 0.4-1.5 3.3-2.9 1.5-0.6-0.2-1 0.4-1.5 0.8-0.6 1.5-1.3 3.1-2.5 4.4-0.2 0.2-0.6 0.4-0.8 0-0.2-1 0.6-2.9-0.8-3.3-0.6 0-1.3 0.4-1.9 0.6-1.3 0-2.9 0-3.5 1-0.2 0.6-0.2 1.5-1 1.5-0.8-0.4-1.7-0.6-2.1-1.5-0.4-0.2-0.8-0.6-1.3-0.2-0.6 0.6-0.8 1.9-1.9 1.9-0.8 0-1.5-0.2-2.3-0.6 0.2-1.9 2.3-2.1 3.5-2.9 2.5-0.6 4.6-2.3 7.1-2.7 4-1.5 7.3-4.6 10.4-7.7 0.4-0.2 1-0.4 1.5-0.4 0.7 0.6 0.7 1.4 1.6 1.6z"/>
	<path class="st1" d="m49.2 331.4c-0.8 0.4-1.9 0.8-2.7 0.4-0.4-0.4-0.2-1.5-0.4-2.1 0.2-0.6 1-0.4 1.5-0.2 0.5 0.6 1.6 0.8 1.6 1.9z"/>
	<path class="st1" d="m84 341.8c0 1.3-0.2 2.1-0.8 3.1-1.5 1.3-2.7 2.9-3.1 5 0 1.5-0.2 2.7-0.2 4-0.4 0.4-0.8-0.2-1-0.4-0.6-1-0.4-3.1-2.1-2.9-0.8 1-1.9 2.5-1.3 3.8 0.8 1 2.3 1.9 1.5 3.3-1.3 0.6-0.8 2.5-2.5 2.7-2.5 0.4-5-0.8-6.9 1-0.6 0.6-1 1.5-1.5 2.3-1 0.2-0.8-1.5-1.5-2.1-0.4-0.6-1.3-0.2-1.9-0.6-0.8-0.4-1.9-1.3-2.9-0.6-0.8 0.4-1.9 1.7-2.9 0.8l-1.5-0.4c0-0.4 0.4-1 0-1.7l-2.7-1.5c-0.2-0.2 0-0.6 0.2-0.8 2.3-1.5 5 0.2 7.7-0.2 1.9-0.6 3.5-0.4 5.4-0.2 1 0 2.3 0.4 2.9-0.6 0.4-0.6 0.6-1.5 0.2-2.1-0.8-1.9-3.3-2.1-3.8-4.4-0.2-0.4-0.4-0.8-0.8-1-0.6-0.2-1 0.4-1.7 0.2-0.2-0.6-0.4-1.3-1-1.5-1.3 0-2.7 0.6-3.8-0.2 0.2-0.6 1-0.4 1.5-0.8 1.7-0.4 3.1-1.5 4.8-2.3l2.3-0.4c2.3-3.8 7.1-3.5 11.3-3.8l4-1.3c1.5 0.9 1.9 2.5 2.1 3.6z"/>
	<path class="st1" d="m58.1 354.9c-0.8 0.4-1.7 0.2-2.5 0-0.4-0.4-0.6-1.3-0.6-1.9 1.3-0.4 2.5 0.9 3.1 1.9z"/>
	<path class="st1" d="m94.4 368c0 0.4-0.4 0.4-0.6 0.4-0.4 0-0.4-0.2-0.4-0.4 0-0.6 0.8-0.2 1 0z"/>
	<path d="m83.8 300.7c0.2 0.6-0.2 1-0.8 1-1 0-1.9 0-2.5-0.8-0.8-0.6-0.4-1.5-0.2-2.3 0.4-0.4 0.8-0.4 1.3-0.2 0.7 0.6 1.6 1.5 2.2 2.3z"/>
	<path d="m88.4 302c0 0.6-0.4 1.3-0.8 1.9-0.4 0.2-0.8 0-0.8-0.4-0.2-0.6 0.2-1.5 0.6-1.9 0.3-0.3 1-0.1 1 0.4z"/>
	<path d="m83.2 307.8v1.5c-1.5 1.5-1.5 4-3.5 4.8-0.6 0-1-0.2-1-0.8 0-0.8-0.2-2.1 0-2.9 0.8-0.4 1 1.3 1.9 0.4 0.4-1.3 1.5-2.3 2.1-3.3 0-0.1 0.5 0.1 0.5 0.3z"/>
	<polygon points="145.1 291.1 21.2 291.1 21.2 282.6 145.1 282.6"/>
	<polygon class="st3" points="145.1 291.1 21.2 291.1 21.2 282.6 145.1 282.6"/>
	<polygon class="st1" points="127.3 289.7 113.4 289.7 113.4 284 127.3 284"/>
	<polygon class="st1" points="96.7 289.7 82.7 289.7 82.7 284 96.7 284"/>
	<polygon class="st1" points="66.1 289.7 51.9 289.7 51.9 284 66.1 284"/>
	<polygon class="st1" points="35.4 289.7 22.7 289.7 22.7 284 35.4 284"/>
	<path d="m139.4 251.9c1 1.3 0.4 3.1 0.6 4.6 1 0.8 3.5 0 3.8 2.1 0.2 0.8-0.4 1.5-0.8 1.9-0.8 0.8-2.1 0-2.7 0.8-0.2 2.5 0 5.2 0 8.1 0.8 0.4 1.7 0.4 2.5 0.8 0.4 0.4 0.8 1 0.8 1.7 0 0.6-0.4 1.3-1.3 1.5-0.6 0.4-1.9 0-2.1 0.8-0.4 1.3 0 2.9-0.2 4.4-0.8 0.4-2.1 0.4-3.1 0.4h-10c-0.8 0.4-1.9 1.5-3.1 0.8-2.1-1.3-5-0.8-7.3-1h-7.3c-1.3-1.3-0.4-3.1-0.8-4.6-0.4-0.8-1.9-0.4-2.7-0.8s-0.8-1.3-0.8-1.9c0-0.8 0.8-1.3 1.7-1.5 0.6-0.4 1.7 0.2 1.9-0.6 0-2.5-0.2-5.2 0-7.5-0.2-1.5-2.1-0.6-2.9-1.3-0.8-0.4-0.8-1.5-0.6-2.3 0.6-1.5 2.3-1 3.5-1.5l0.2-0.4 0.2-4.4 0.2-0.4 11.5 0.2c1.3 0 2.5 0.6 3.8 1 2.5-1.9 6-0.8 9-1.5 1.9 0.6 4 0.2 6 0.6z"/>
	<path class="st4" d="m139.4 251.9c1 1.3 0.4 3.1 0.6 4.6 1 0.8 3.5 0 3.8 2.1 0.2 0.8-0.4 1.5-0.8 1.9-0.8 0.8-2.1 0-2.7 0.8-0.2 2.5 0 5.2 0 8.1 0.8 0.4 1.7 0.4 2.5 0.8 0.4 0.4 0.8 1 0.8 1.7 0 0.6-0.4 1.3-1.3 1.5-0.6 0.4-1.9 0-2.1 0.8-0.4 1.3 0 2.9-0.2 4.4-0.8 0.4-2.1 0.4-3.1 0.4h-10c-0.8 0.4-1.9 1.5-3.1 0.8-2.1-1.3-5-0.8-7.3-1h-7.3c-1.3-1.3-0.4-3.1-0.8-4.6-0.4-0.8-1.9-0.4-2.7-0.8s-0.8-1.3-0.8-1.9c0-0.8 0.8-1.3 1.7-1.5 0.6-0.4 1.7 0.2 1.9-0.6 0-2.5-0.2-5.2 0-7.5-0.2-1.5-2.1-0.6-2.9-1.3-0.8-0.4-0.8-1.5-0.6-2.3 0.6-1.5 2.3-1 3.5-1.5l0.2-0.4 0.2-4.4 0.2-0.4 11.5 0.2c1.3 0 2.5 0.6 3.8 1 2.5-1.9 6-0.8 9-1.5 1.9 0.6 4 0.2 6 0.6z"/>
	<path d="m98.2 251.7c0.4 0 1 0.4 1.5 0.6 0.4 1.7 0 2.9 0.4 4.4 1 0.4 2.7 0 3.3 1.5 0.2 0.6 0.2 1.7-0.2 2.1-0.8 1-2.7 0-3.3 1.3-0.2 2.9-0.2 5.2 0 7.9 0.8 0.8 2.3 0.2 3.1 1.3 0.4 0.4 0.6 1 0.4 1.7-0.6 1-2.1 1-3.3 1.3-0.4 0.4 0 1.3-0.2 1.7-0.4 1 0.6 2.5-0.6 3.1-3.5 0.4-6.7-0.2-10.2 0h-3.3c-0.8 0.6-2.1 1.5-3.1 0.8l-2.1-0.8h-7.3c-1.7 0-4 0.6-5.2-0.8 0-1.3 0.2-2.7 0-4-1.3-0.4-3.3 0.2-4-1.5-0.2-0.4 0-1.3 0.2-1.7 0.8-1.3 3.1-0.2 4-1.3v-3.8c0.2-1.7 0-3.1 0-4.8-1.3-0.4-3.5 0.2-3.8-1.7-0.2-1 0.4-1.9 1.3-2.1 0.8-0.2 2.1 0.2 2.5-0.6l0.2-4c1-1.7 3.5-0.6 5-0.8h7.7c1.3 0.2 2.3 1.3 3.5 0.6 3.7-1.4 8.9 0 13.5-0.4z"/>
	<path class="st4" d="m98.2 251.7c0.4 0 1 0.4 1.5 0.6 0.4 1.7 0 2.9 0.4 4.4 1 0.4 2.7 0 3.3 1.5 0.2 0.6 0.2 1.7-0.2 2.1-0.8 1-2.7 0-3.3 1.3-0.2 2.9-0.2 5.2 0 7.9 0.8 0.8 2.3 0.2 3.1 1.3 0.4 0.4 0.6 1 0.4 1.7-0.6 1-2.1 1-3.3 1.3-0.4 0.4 0 1.3-0.2 1.7-0.4 1 0.6 2.5-0.6 3.1-3.5 0.4-6.7-0.2-10.2 0h-3.3c-0.8 0.6-2.1 1.5-3.1 0.8l-2.1-0.8h-7.3c-1.7 0-4 0.6-5.2-0.8 0-1.3 0.2-2.7 0-4-1.3-0.4-3.3 0.2-4-1.5-0.2-0.4 0-1.3 0.2-1.7 0.8-1.3 3.1-0.2 4-1.3v-3.8c0.2-1.7 0-3.1 0-4.8-1.3-0.4-3.5 0.2-3.8-1.7-0.2-1 0.4-1.9 1.3-2.1 0.8-0.2 2.1 0.2 2.5-0.6l0.2-4c1-1.7 3.5-0.6 5-0.8h7.7c1.3 0.2 2.3 1.3 3.5 0.6 3.7-1.4 8.9 0 13.5-0.4zm-56.7 0.8c4.2-1.7 8.8-0.4 13.3-0.8 1.3 0.2 2.9-0.6 3.8 0.6v4c0.4 1 1.9 0.4 2.5 0.8 0.4 0.2 0.8 0.4 1 1s0 1.3-0.2 1.9c-0.8 0.8-1.9 0.6-2.9 0.8l-0.4 0.4c0.2 2.5-0.4 4.6 0 6.9 0 0.4-0.2 1.3 0.4 1.5 1.3 0 2.3 0 3.1 0.8 0.4 0.6 0.4 1.3 0.2 2.1-0.4 2.5-4.4-0.4-4 2.5 0 1 0.2 2.5-0.2 3.5-4.6 0-9.2-0.4-13.3 0-0.8 0.6-1.7 1-2.9 1.3-0.8-0.2-1.7-0.6-2.3-1.3-4.2-0.2-8.1-0.2-12.1-0.2-1.3-1-0.4-2.9-0.8-4.4-0.6-0.8-1.7-0.2-2.5-0.6-0.6 0-0.8-0.6-1-1 0-0.8 0-1.7 0.6-2.3 0.6-0.4 1.7-0.4 2.5-0.4l0.4-0.4c-0.2-2.7 0.4-5.4-0.2-8.3-0.4-0.6-1.3 0-1.7-0.4-0.8-0.2-1.7-0.6-1.9-1.5-0.2-0.6-0.2-1.3 0.4-1.9 0.8-1 2.5 0.2 3.3-0.8l0.4-4c0.6-1.3 2.1-0.6 3.3-0.6 2.1-0.4 4.6 0 6.7 0 1.7 0 3.2 0.4 4.5 0.8z"/>
	<path class="st1" d="m40.8 253.6 0.4 0.8c0.2 5.6 0.2 11.3 0.2 17.3l-0.2 2.1c-1.5 0-2.9-0.6-4.4-0.4-1.7-0.2-3.3 0.2-4.8-0.2-0.8-1.9-0.2-4-0.4-6 0-4.2 0.2-9.4 0.2-13.8 0-0.4 0.4-0.4 0.6-0.6 3 0.2 6.1-0.7 8.4 0.8z"/>
	<path class="st1" d="m29.8 253.2c-0.8 0.6-1.9 1.7-1.5 2.7 0.4 7.1 0 13.3 0.4 20l0.6 0.6c3.3 0 6.9-0.4 10 0.2 0.2 0 0.2 0.4 0 0.4-0.8 0.4-1.9 0.2-2.7 0.2l-8.5-0.2c-0.6-0.4-0.4-1.5-0.4-2.3s0.2-1.9-0.6-2.3c-1.3-0.2-2.3 0-3.1-0.8 0.6-1.7 3.3-0.4 3.8-2.1 0.2-3.1-0.2-6.3 0-9.2-0.4-1.7-2.1-1.3-3.3-1.5-0.2-0.2-0.4-0.4-0.4-0.8 1-1 3.1 0.2 3.8-1.3 0.4-1.3 0-2.5 0.2-4 0.4-0.2 1.3-0.2 1.9-0.2v0.6z"/>
	<path class="st1" d="m53.3 253.2v19.8c-3.3 0.4-7.1-0.2-10.4 0.6-0.8-0.6-0.2-1.7-0.4-2.7-0.2-2.1 0-4.6 0-6.9 0-3.3-0.2-6.9 0-10.2 0.4-1 1.7-1.3 2.7-1.3h7.9z"/>
	<path class="st1" d="m57.3 253.2c0.2 1.3-0.4 3.1 0.4 4.4 0.8 0.4 2.1 0.2 2.9 0.4 0.4 0.4 0.2 0.8 0 1.3-0.8 0.8-2.9-0.2-3.3 1.3 0 3.3-0.2 6.5 0 9.8l0.4 0.4c1 0.2 2.5-0.2 3.1 0.6 0 0.4 0 1-0.4 1.3-1 0.2-2.7-0.4-3.3 0.8-0.2 1.3 0.2 2.7-0.2 4l-0.6 0.2-11.9-0.2c-0.2-0.2 0-0.4 0-0.4l1.3-0.4h9.6c1-0.2 1-1.5 1-2.3v-13.3c0-2.3 0.4-4.4-0.2-6.7 0-0.4-0.8-0.8-0.8-1.5 0.7-0.1 1.6-0.1 2 0.3z"/>
	<path class="st1" d="m111.3 253.2c-0.2 0.6-1 1.3-1.3 1.9 0 6.9 0 14.4 0.2 21.5l0.6 0.4c3.8 0 7.7-0.8 10.8 0.8 0.2 0 0 0 0 0.2-4 0-8.1 0.2-12.1 0l-0.4-0.4c-0.2-1.5 0.2-2.9-0.4-4.4-0.8-0.8-3.5 0.2-2.9-1.7 1-0.8 2.5 0.2 3.1-1 0-3.5 0.2-6.7 0-10-0.8-1-2.1-0.4-3.1-0.6-0.4-0.4-0.6-0.8-0.2-1.3 1-0.8 4.4 0.2 3.8-2.3 0.4-1-0.4-3.1 1-3.3 0.3-0.2 0.7-0.2 0.9 0.2z"/>
	<path class="st1" d="m138.8 253.2c0.4 1.7-0.4 3.1 0.6 4.6 0.8 0.4 2.5-0.2 2.9 0.8 0 2.1-2.9 0.4-3.5 2.1 0.2 3.1-0.2 5.8 0 9.2-0.4 0.2-0.4 0.6-0.2 0.8 0.8 0.8 2.1-0.4 3.1 0.4 0.6 0.2 0.2 0.6 0.2 1-0.8 1-2.5-0.2-3.1 1.3l-0.2 4.2-0.6 0.2h-11.3c-0.2-0.2 0-0.2 0-0.4l1.3-0.4h8.5c0.4 0 1-0.4 1-1 0-6.7-0.2-13.6-0.2-20.6l-1-2.1c1.1-0.5 2.3-0.8 2.5-0.1z"/>
	<path class="st1" d="m112.5 255.9v18.1c-0.2 0.4-0.8 0.8-1 1l-0.4-0.2v-6-1.5-12.3c0.4-0.4 0.6-1 1-1.3 0.4 0.9 0.4 1.3 0.4 2.2z"/>
	<path class="st1" d="m137.1 255c-0.2 4.8 0 9.2 0 13.6v5.8c0 0.2 0 0.2-0.2 0.4-1.5-0.6-0.8-2.1-1-3.5 0-1.7-0.2-3.8 0.2-5.6l-0.2-0.6v-11c0.4-0.7 1 0.3 1.2 0.9z"/>
	<path class="st1" d="m55.6 254.6c0 6.9 0 13.6-0.2 19.6-0.2 0.4-0.4 0-0.8-0.2-0.4-1 0-2.3 0-3.3-0.2-5.4 0-11 0-16.5 0.4-0.4 0.8 0.2 1 0.4z"/>
	<path class="st1" d="m124.8 263.2c-0.2 0.4-0.8 0.4-1.3 0.2l-0.4-0.2c0.2-0.8 0-2.1 0.8-2.7 0.7 0.6 0.5 1.8 0.9 2.7z"/>
	<path class="st1" d="m54.8 275.3c-0.2 0.4-1 0.2-1.5 0.4h-2.7c-2.1 0-4.4-0.2-6.3 0.2-0.4 0-0.6-0.4-0.6-0.8 0.2-0.8 1.3-0.4 1.9-0.8h8.1c0.3 0.1 0.7 0.6 1.1 1z"/>
	<path class="st1" d="m40.6 274.9c0 0.4-0.4 0.8-0.8 1-2.7-0.8-5.6-0.2-8.5-0.6 0.2-0.4 0.6-0.8 1.3-0.8 2.6-0.1 5.5-0.1 8 0.4z"/>
	<path class="st1" d="m123 275.3c0.2 0.2 0.2 0.6 0 0.6-1 1.3-2.3-0.2-3.5 0-2.1-0.2-4.6 0-6.9-0.2 0.6-1.9 3.1-0.8 4.6-1 2 0.2 4.1-0.5 5.8 0.6z"/>
	<path class="st1" d="m135.5 274.9c0.4 0.2 0.8 0.6 0.8 1-3.5 0.4-6.9-0.4-10 0.4-0.4 0-0.6-0.6-0.4-1 0.6-0.8 1.7-0.6 2.7-0.8z"/>
	<path class="st1" d="m43.3 276.5c0.2 0.6 0 1.5-0.4 1.9s-1 0.4-1.5 0.2c-0.4 0-0.6-0.6-0.6-1-0.2-0.8 0.8-1.3 1.3-1.9 0.6 0 1 0.4 1.2 0.8z"/>
	<path class="st1" d="m125.5 276.9c0 0.8 0 1.9-0.8 1.9-0.6 0-1.3-0.2-1.5-0.8-0.2-0.8 0.4-1.7 0.8-1.9 0.8 0 1.3 0.4 1.5 0.8z"/>
	<path class="st1" d="m94.8 253.4v19.8l-0.4 0.2c-3.5 0.4-7.1-0.6-10.4 0.6-0.6-0.4 0-1.3-0.2-1.9v-17.5c0-0.6 0.4-1 0.8-1.3 0.8-0.6 2.1-0.4 3.3-0.6l6.7 0.2z"/>
	<path class="st1" d="m98.8 253.2c0 1.5 0 2.9 0.2 4.4 1 0.8 4-0.4 3.3 1.9-0.8 0.6-2.1 0.2-3.1 0.4l-0.4 0.2c-0.4 3.3 0.2 6.9 0 9.8 0 0.4 0.2 0.8 0.8 1 0.8 0 2.3-0.6 2.7 0.6-0.2 2.1-2.7 0.2-3.5 1.7-0.2 1.5 0.4 2.9-0.2 4.4l-0.4 0.2c-4.4 0-8.5 0-12.5-0.2-0.2 0 0-0.4 0-0.4l0.8-0.4c3.3-0.4 7.1 0 10.6-0.4 0.4 0 0.8-0.4 0.8-1v-20.2c-0.2-1-1.3-1.7-1.3-2.5 0.7 0.1 1.8-0.2 2.2 0.5z"/>
	<path class="st1" d="m70.9 253c-0.2 0.8-0.8 1-1.3 1.7-0.4 1.3 0 2.7-0.2 4.2v16.9c0 0.4 0.4 0.8 0.8 1l9 0.2c0.4 0 1 0.2 1.5 0.6-0.2 0.4-0.8 0.4-1.3 0.4-3.3 0-6.9 0.2-10.2-0.2l-0.4-0.2c0-1.5 0-3.1-0.6-4.4-1-0.4-2.3 0-3.3-0.4-0.4-0.2-0.4-0.8 0-1.3 1-0.6 3.1 0.4 3.8-1.3 0-3.3 0.2-6.5 0-9.8-0.8-1.3-2.9 0-3.8-1.3 0.4-1.9 2.9-0.2 3.8-1.9l0.2-4c0.7-0.4 1.3-0.4 2-0.2z"/>
	<path class="st1" d="m72.1 254c0.2 5.8-0.4 11 0 16.9-0.4 1.3 0.6 3.3-1.3 3.5-0.4-5.8 0-12.1-0.2-18.3-0.2-1 0.4-1.9 1.3-2.5z"/>
	<path class="st1" d="m97.1 255c0 6.5 0.2 13.3-0.2 19.4-0.4 0-0.8-0.4-0.8-0.6 0-2.5-0.4-5.2-0.2-7.9 0.2-3.5-0.2-7.9 0.2-11.7 0.4-0.2 1 0.4 1 0.8z"/>
	<path class="st1" d="m81.7 274.9c0.4 0 0.8 0.4 0.4 0.8l-0.6 0.6c-2.9-1-6.7-0.4-9.8-0.8 0.2-0.4 0.4-0.8 0.8-1.3 3.1 0.4 6.3 0 9.2 0.7z"/>
	<path class="st1" d="m95 274.4c0.4 0.2 0.8 0.6 0.8 1l-0.4 0.2c-3.5 0-7.1-0.4-10.4 0.4-0.4 0-1 0-1.3-0.6 0.4-0.8 1.3-1 2.1-1 3.4-0.2 6.3 0 9.2 0z"/>
	<path class="st1" d="m84.2 277.4c0 0.6 0 1.5-0.8 1.5-0.6 0-1.5 0-1.5-0.8 0.2-0.6 0.6-1 1.3-1.5 0.6-0.3 0.8 0.3 1 0.8z"/>
	<path class="st1" d="m82.5 266.7c0.4-3.3 0-7.1 0.2-10.4 0-1 0-2.1-0.6-2.9-2.5-1-5.6-0.4-8.5-0.6-0.2 0-0.4 0-0.4 0.2v19.4l0.2 0.8c2.1 0.4 4 0.2 6 0.2 1 0.2 2.1 0.4 3.1 0.6 0-2.3 0.2-4 0-6.3z"/>
	<path d="m81.7 266.5c-1-0.8-1.3-2.1-2.1-3.1 0.4-0.4 0.8-0.6 1.3-1 0.6-0.6 1.3-1.7 1-2.5 0-0.8-0.4-1.7-1.3-2.1-1.7-0.6-4-0.4-5.8-0.2-0.4 0.2-0.4 0.4-0.2 0.8 0.6 0 1 0.4 1 1 0 2.3 0 4.6-0.4 6.9l-0.8 1c0.8 0.8 2.1 0.2 3.5 0.4 0.4-0.6-0.6-1-0.8-1.7 0.2-0.6 0-1.7 0.4-2.1 1.3 1 1.7 2.9 3.1 4l1.9 0.2v-1c0-0.2-0.6-0.6-0.8-0.6zm-2.5-4.2c-0.6 0-1.5 0.4-1.7-0.4 0-1-0.4-2.5 0-3.5 0.8-0.6 1.9-0.4 2.5 0.4 0.4 0.6 0.4 1.3 0.4 2.1-0.4 0.6-0.6 1.2-1.2 1.4z"/>
	<path class="st1" d="m135.1 255.3c0-0.8 0-1.7-0.4-2.3h-3.1c-2.1 0.4-4.6-0.4-6.5 0.8-0.8 1-0.4 2.1-0.6 3.3 0.2 0.6 0.4 1.5 0.6 2.1l-0.4 0.8-1-0.4-0.4-0.8c0.2-0.4 0.4-0.8 0.4-1.5 0-1.5 0.4-3.5-1.5-4.2-2.7-0.2-5.2-0.4-8.1-0.4-0.2 0-0.4 0-0.4 0.2v18.3c0 0.8-0.2 1.7 0.6 2.1 2.5-0.4 4.6 0 6.9 0 0.8 0 1.5 0.8 2.5 0.6 0.2-2.5 0.2-5.6 0.2-8.5 0-0.2 0-0.8-0.4-0.8v-0.6l1.5 0.2 0.2 0.4-0.2 0.2-0.2 8.5c0 0.2 0 0.8 0.6 0.8 2.5-1.5 5.8-0.4 8.8-0.8l0.6-0.2c0.4-1.5 0.2-6.5 0.2-6.5 0.1-3.6 0.1-7.4 0.1-11.3z"/>
	<path d="m125.3 264.6c0.4 0.4 0.6 1 0.4 1.7l-0.6 0.8 0.4 0.4c1 0 2.3 0.2 3.3-0.2-0.2-0.4-0.8-0.6-1.3-1-1.3-3.1-2.1-6.3-2.9-9.6l-1 0.6c-0.6 2.9-1.7 5.4-2.5 8.3-0.2 0.6-0.8 0.6-1.3 1-0.6 0.2-0.8-0.4-1-0.8 0-2.5 0.2-4.6 0-7.3 0-0.4 0.4-0.8 0.8-0.4 0.6 0.4 0.6 1.3 0.8 1.7 0.4 0.2 0.8 0.2 0.8-0.2l0.4-2.5c-0.4-0.8-1 0-1.7 0-1.3 0-2.9 0.2-4.2-0.4-1 0.4-0.8 1.7-0.8 2.7v0.4c0.8-0.6 1.3-1.9 2.3-1.7v7.9c-0.4 0.4-1.3 0.6-1 1.3 1.5 0.4 3.1 0 4.6 0.2 0.8 0 1.7 0.2 2.5 0 0.2-0.2 0-0.4 0-0.6-0.4-0.2-1-0.6-0.8-1.3 0.2-0.4 0.4-1.3 1-1 0.2 0 0.2 0 0.4 0.2l1.3 0.2c-0.1-0.2-0.1-0.4 0.1-0.4zm-1.9-1-0.4-0.2c0.2-0.8 0-2.1 0.8-2.7 0.8 0.4 0.6 1.7 1 2.5-0.2 0.4-1 0.4-1.4 0.4z"/>
	<path d="m133 257.8c0 0.6 0.4 1.7 0 2.1-0.6-0.4-0.6-1-1.7-1.3-0.4 0-1 0-1 0.6-0.2 1.9 1.7 1.9 2.7 2.9s1.5 2.5 1 3.8c-0.4 1-0.8 1.5-1.9 1.5-0.8 0.2-1.5-0.4-2.1 0-0.2 0-0.4 0.2-0.6 0v-3.4c0-0.2 0.2-0.2 0.4-0.2 0.4 1 0.2 2.3 1.7 2.5 0.4 0 0.8-0.2 1-0.8 0.2-2.9-3.8-2.3-3.8-5.4 0-0.6 0.2-1.3 0.4-1.9 0.6-1 2.3-0.4 3.3-1 0.4-0.3 0.4 0.4 0.6 0.6z"/>
	<path d="m90.9 257.6c-0.8 0.4-1.7 1-1.5 2.3-0.2 2.1-0.2 4.2 0 6.3l1.3 1.3v0.2c-1.5 0-2.7 0.2-4.2 0-0.6-0.6 0.8-1 1-1.5 0.2-2.3 0.4-4.8 0.2-7.3-0.4-0.8-1.7-0.6-1.5-1.5 1.3-0.2 2.9-0.2 4.2 0z"/>
	<path d="m50 259.2c-0.8 1-1-0.8-1.9-1-0.4 0-1.3-0.2-1.7 0.2-0.2 1-0.4 2.1 0 3.1 0.4 0.2 1 0.2 1.5 0.2 0.4-0.4 0.8-1.3 1.5-1.3 0.4 0.4-0.2 1 0 1.5-0.2 0.6 0.4 1.5-0.4 1.7-0.4-0.2-0.8-1.3-1.5-1.3h-1.3c-0.4 1.5-0.2 2.9 0 4.4 0.6 0.6 1.5 0 2.3 0 1-0.2 0.8-1.7 1.7-1.7 0.2 0.6 0.4 1.5 0.2 2.1l-0.4 0.4h-6c-0.2 0-0.8 0-0.6-0.4 1.9-1.3 0.8-3.5 1-5.2-0.2-1.3 0.8-3.3-1-4.2 0-0.4 0.4-0.4 0.6-0.4 1.5 0 3.5 0.6 4.8-0.6 1.2 0.4 1.2 1.7 1.2 2.5z"/>
	<path d="m40.8 258c-1.7 1.3-1.7 3.8-2.5 5.6-0.6 1-0.4 2.7-1.5 3.5-0.4 0.2-0.8-0.2-0.8-0.6-0.6-2.5-1.3-5.2-2.3-7.7 0-0.6-1.9-0.8-0.8-1.5 1.3-0.2 2.1 0.2 3.3 0 0.2 0.8-0.8 1.3-0.6 2.1 0.8 1 0.4 2.7 1.5 4l0.4-0.4c0-1.9 2.3-3.8 0.4-5.4 0.4-0.8 1.7-0.2 2.5-0.4 0.2 0.1 0.8 0.4 0.4 0.8z"/>
	<path class="st1" d="m30.6 254c0.4 6.9 0 13.3 0 19.8 0 0.4-0.4 0.8-0.8 0.8-0.4-2.1-0.4-4.2-0.2-6.3-0.2-4.4 0-9 0-13.3 0-0.6 0.6-1 1-1z"/>
</g>
</svg>
