<svg xmlns="http://www.w3.org/2000/svg" viewBox="0 0 153.08 211.52"><title>Asset 2</title><rect width="152.97" height="152.97" style="fill:#f20017"/><path d="M17.58,17.1H40.3V53.51a74.33,74.33,0,0,0-22.72,28Z"/><path d="M135.25,17.1H112.54V53.51a74.31,74.31,0,0,1,22.71,28Z" style="fill:#fff"/><path d="M40.48,103.89v31.67H17.76V104a58.64,58.64,0,0,1,10.43-30.4c17.18-14.8,40.2-13.76,57.65-2a37,37,0,0,0-45.36,32.29"/><path d="M29.2,70.68a59.63,59.63,0,0,1,106.18,33.58h-.12v31.61H112.55v-32a36.75,36.75,0,0,0-1.46-7.08C103.36,67,61.6,41.3,29.2,70.68" style="fill:#fff"/><path d="M136,210.89v-28.7h.13l10,28.7h6.88V164.94H146v26.28h-.13l-9.61-26.28h-7.32v45.95ZM103.44,200.7h8.65l1.4,10.19h7.64l-8.47-45.95h-9.79L94.4,210.89H102Zm4.26-26.6h.13L111,193.83h-6.37ZM74.61,193.83h5v4.46c0,4.58-1.15,6.36-4.33,6.36-2.74,0-3.69-1.91-3.69-4.84V176.2c0-3.88,1.59-5,3.5-5,3.12,0,4.52,1.78,4.52,8.65h7.51V176.9c0-6.87-4-12.6-11.84-12.6s-11.58,5.28-11.58,11.78v23.67c0,7.32,4.32,11.77,10.56,11.77,3.69,0,5.6-1.27,8-4.07l1.46,3.44h3.82V187.6H74.61ZM40.43,176.27c0-3.44,1-5.09,4.2-5.09s4.2,1.65,4.2,5.09v23.29c0,3.44-1,5.09-4.2,5.09s-4.2-1.65-4.2-5.09Zm-7.89,23.48c0,6.49,3.82,11.77,12.09,11.77s12.1-5.28,12.1-11.77V176.08c0-6.5-3.82-11.78-12.1-11.78s-12.09,5.28-12.09,11.78ZM8,210.89V190.52h8.4v20.37h7.89V164.94H16.38v18.71H8V164.94H.09v45.95Z"/></svg>