<?xml version="1.0" encoding="utf-8"?>
<!-- Generator: Adobe Illustrator 24.2.3, SVG Export Plug-In . SVG Version: 6.00 Build 0)  -->
<svg version="1.1" id="Layer_1" xmlns="http://www.w3.org/2000/svg" xmlns:xlink="http://www.w3.org/1999/xlink" x="0px" y="0px"
	 viewBox="0 0 171 156.77" style="enable-background:new 0 0 171 156.77;" xml:space="preserve">
<style type="text/css">
	.st0{fill:#273691;}
	.st1{fill:#FFFFFF;}
	.st2{fill:#933C91;}
	.st3{fill:#00A766;}
	.st4{fill:#F58021;}
	.st5{fill:#EE255C;}
	.st6{fill:#EE3124;}
</style>
<g>
	<path class="st0" d="M157.12,8.62h-37.8c-0.2,0-0.4,0.02-0.61,0.03c-5.8,0.32-10.42,5.11-10.42,10.99v53.71
		c0,3.97,3.22,7.19,7.19,7.19h4.39c3.97,0,7.19-3.22,7.19-7.19V54.62l0.02-0.02V39.62V24.92c0-0.73,0.59-1.32,1.32-1.32h28.68
		c2.71,0,4.91-2.19,4.93-4.89l0.04-5.13C162.07,10.84,159.86,8.62,157.12,8.62z"/>
	<g>
		<path class="st0" d="M30.66,15.72v57.52c0,3.97-3.22,7.19-7.19,7.19h-4.39c-3.97,0-7.19-3.22-7.19-7.19V15.72
			c0-3.97,3.22-7.19,7.19-7.19h4.39C27.44,8.54,30.66,11.75,30.66,15.72z"/>
	</g>
	<g>
		<path class="st0" d="M24.31,101.08c0,3.26-2.42,5.28-6.31,5.28h-3.35v4.28h-2.75V95.8h6.1C21.89,95.8,24.31,97.79,24.31,101.08z
			 M21.53,101.08c0-1.86-1.25-2.95-3.67-2.95h-3.22v5.89h3.22C20.28,104.02,21.53,102.94,21.53,101.08z"/>
		<path class="st0" d="M32.82,99.19v2.52c-0.23-0.04-0.42-0.06-0.62-0.06c-2.01,0-3.28,1.19-3.28,3.5v5.49h-2.65V99.32h2.52v1.65
			C29.56,99.79,30.94,99.19,32.82,99.19z"/>
		<path class="st0" d="M33.6,104.98c0-3.39,2.54-5.78,6.02-5.78c3.52,0,6.04,2.39,6.04,5.78c0,3.39-2.52,5.81-6.04,5.81
			C36.15,110.78,33.6,108.37,33.6,104.98z M42.99,104.98c0-2.16-1.44-3.54-3.37-3.54c-1.91,0-3.35,1.38-3.35,3.54
			s1.44,3.54,3.35,3.54C41.55,108.52,42.99,107.14,42.99,104.98z"/>
		<path class="st0" d="M50.7,98.73v0.68h3.11v2.12h-3.03v9.11h-2.65v-9.11h-1.87V99.4h1.87v-0.72c0-2.37,1.42-3.92,4.05-3.92
			c0.91,0,1.8,0.19,2.39,0.62l-0.74,1.99c-0.4-0.28-0.91-0.47-1.46-0.47C51.27,96.91,50.7,97.52,50.7,98.73z"/>
		<path class="st0" d="M65.59,105.83h-8.88c0.32,1.65,1.7,2.71,3.66,2.71c1.27,0,2.27-0.4,3.07-1.23l1.42,1.63
			c-1.02,1.21-2.61,1.84-4.56,1.84c-3.79,0-6.25-2.44-6.25-5.81s2.48-5.78,5.84-5.78c3.31,0,5.72,2.31,5.72,5.85
			C65.63,105.25,65.61,105.57,65.59,105.83z M56.69,104.07h6.42c-0.21-1.63-1.46-2.76-3.2-2.76
			C58.2,101.31,56.95,102.41,56.69,104.07z"/>
		<path class="st0" d="M66.46,109.51l1.02-2.01c1,0.66,2.52,1.12,3.94,1.12c1.67,0,2.37-0.47,2.37-1.25c0-2.16-6.99-0.13-6.99-4.64
			c0-2.14,1.93-3.54,4.98-3.54c1.5,0,3.22,0.36,4.24,0.97L75,102.18c-1.08-0.64-2.16-0.85-3.24-0.85c-1.61,0-2.37,0.53-2.37,1.27
			c0,2.29,6.99,0.26,6.99,4.68c0,2.12-1.95,3.5-5.13,3.5C69.36,110.78,67.47,110.23,66.46,109.51z"/>
		<path class="st0" d="M76.94,109.51l1.02-2.01c1,0.66,2.52,1.12,3.94,1.12c1.67,0,2.37-0.47,2.37-1.25c0-2.16-6.99-0.13-6.99-4.64
			c0-2.14,1.93-3.54,4.98-3.54c1.5,0,3.22,0.36,4.23,0.97l-1.02,2.01c-1.08-0.64-2.16-0.85-3.24-0.85c-1.61,0-2.37,0.53-2.37,1.27
			c0,2.29,6.99,0.26,6.99,4.68c0,2.12-1.95,3.5-5.13,3.5C79.84,110.78,77.96,110.23,76.94,109.51z"/>
		<path class="st0" d="M88.36,95.87c0-0.89,0.72-1.59,1.7-1.59c0.97,0,1.69,0.66,1.69,1.53c0,0.93-0.7,1.65-1.69,1.65
			C89.08,97.46,88.36,96.76,88.36,95.87z M88.72,99.32h2.65v11.32h-2.65V99.32z"/>
		<path class="st0" d="M93.49,104.98c0-3.39,2.54-5.78,6.02-5.78c3.52,0,6.04,2.39,6.04,5.78c0,3.39-2.52,5.81-6.04,5.81
			C96.03,110.78,93.49,108.37,93.49,104.98z M102.87,104.98c0-2.16-1.44-3.54-3.37-3.54c-1.91,0-3.35,1.38-3.35,3.54
			s1.44,3.54,3.35,3.54C101.43,108.52,102.87,107.14,102.87,104.98z"/>
		<path class="st0" d="M118.8,104.15v6.48h-2.65v-6.14c0-2.01-1-2.99-2.69-2.99c-1.89,0-3.16,1.14-3.16,3.41v5.72h-2.65V99.32h2.52
			v1.46c0.87-1.04,2.25-1.59,3.9-1.59C116.79,99.19,118.8,100.74,118.8,104.15z"/>
		<path class="st0" d="M131.21,104v6.63h-2.5v-1.38c-0.64,0.97-1.87,1.53-3.56,1.53c-2.59,0-4.22-1.42-4.22-3.39
			c0-1.88,1.27-3.37,4.7-3.37h2.92v-0.17c0-1.55-0.93-2.46-2.82-2.46c-1.27,0-2.58,0.43-3.43,1.12l-1.04-1.93
			c1.21-0.93,2.96-1.4,4.79-1.4C129.32,99.19,131.21,100.74,131.21,104z M128.56,107.1v-1.31h-2.73c-1.8,0-2.29,0.68-2.29,1.5
			c0,0.95,0.8,1.57,2.16,1.57C127,108.86,128.12,108.26,128.56,107.1z"/>
		<path class="st0" d="M134.18,94.91h2.65v15.72h-2.65V94.91z"/>
		<g>
			<path class="st0" d="M11.08,124.4c0-4.43,3.39-7.63,7.95-7.63c2.41,0,4.49,0.87,5.87,2.48l-1.78,1.67
				c-1.08-1.16-2.41-1.74-3.96-1.74c-3.07,0-5.3,2.16-5.3,5.21c0,3.05,2.22,5.21,5.3,5.21c1.55,0,2.88-0.57,3.96-1.76l1.78,1.7
				c-1.38,1.61-3.45,2.48-5.89,2.48C14.47,132.03,11.08,128.83,11.08,124.4z"/>
			<path class="st0" d="M25.51,126.16c0-3.39,2.54-5.78,6.02-5.78c3.52,0,6.04,2.39,6.04,5.78c0,3.39-2.52,5.81-6.04,5.81
				C28.05,131.97,25.51,129.55,25.51,126.16z M34.89,126.16c0-2.16-1.44-3.54-3.37-3.54c-1.91,0-3.35,1.38-3.35,3.54
				c0,2.16,1.44,3.54,3.35,3.54C33.45,129.7,34.89,128.32,34.89,126.16z"/>
			<path class="st0" d="M49,125.19v6.63h-2.5v-1.38c-0.64,0.97-1.87,1.53-3.56,1.53c-2.59,0-4.22-1.42-4.22-3.39
				c0-1.88,1.27-3.37,4.7-3.37h2.92v-0.17c0-1.55-0.93-2.46-2.82-2.46c-1.27,0-2.58,0.43-3.43,1.12l-1.04-1.93
				c1.21-0.93,2.96-1.4,4.79-1.4C47.11,120.38,49,121.93,49,125.19z M46.35,128.28v-1.31h-2.73c-1.8,0-2.29,0.68-2.29,1.5
				c0,0.95,0.8,1.57,2.16,1.57C44.78,130.04,45.9,129.45,46.35,128.28z"/>
			<path class="st0" d="M51.14,126.16c0-3.39,2.54-5.78,6.12-5.78c2.2,0,3.96,0.91,4.83,2.63l-2.03,1.18
				c-0.68-1.08-1.69-1.57-2.82-1.57c-1.95,0-3.43,1.36-3.43,3.54c0,2.2,1.48,3.54,3.43,3.54c1.12,0,2.14-0.49,2.82-1.57l2.03,1.19
				c-0.87,1.69-2.63,2.65-4.83,2.65C53.68,131.97,51.14,129.55,51.14,126.16z"/>
			<path class="st0" d="M74.99,125.34v6.48h-2.65v-6.14c0-2.01-1-2.99-2.69-2.99c-1.89,0-3.16,1.14-3.16,3.41v5.72h-2.65V116.1h2.65
				v5.72c0.87-0.93,2.2-1.44,3.77-1.44C72.98,120.38,74.99,121.93,74.99,125.34z"/>
			<path class="st0" d="M88.63,127.01h-8.88c0.32,1.65,1.7,2.71,3.66,2.71c1.27,0,2.27-0.4,3.07-1.23l1.42,1.63
				c-1.02,1.21-2.61,1.84-4.56,1.84c-3.79,0-6.25-2.44-6.25-5.81c0-3.37,2.48-5.78,5.84-5.78c3.31,0,5.72,2.31,5.72,5.85
				C88.67,126.44,88.65,126.76,88.63,127.01z M79.73,125.25h6.42c-0.21-1.63-1.46-2.76-3.2-2.76
				C81.24,122.5,79.99,123.6,79.73,125.25z"/>
			<path class="st0" d="M89.49,130.7l1.02-2.01c1,0.66,2.52,1.12,3.94,1.12c1.67,0,2.37-0.47,2.37-1.25c0-2.16-6.99-0.13-6.99-4.64
				c0-2.14,1.93-3.54,4.98-3.54c1.5,0,3.22,0.36,4.23,0.97l-1.02,2.01c-1.08-0.64-2.16-0.85-3.24-0.85c-1.61,0-2.37,0.53-2.37,1.27
				c0,2.29,6.99,0.26,6.99,4.68c0,2.12-1.95,3.5-5.13,3.5C92.4,131.97,90.51,131.42,89.49,130.7z"/>
		</g>
	</g>
	<g>
		<defs>
			<path id="SVGID_15_" d="M155.12,35.61c-2.51-0.15-5.03-0.2-7.54-0.13c-5.02,0.14-10.02,0.74-14.91,1.85
				c-10.07,2.3-18.72,6.98-26.96,13.1c-3.82,2.84-7.59,5.77-11.67,8.23c-7.16,4.34-15.85,7.24-23.91,4.94
				c-7.63-2.18-13.63-9.22-14.56-17.11c-0.93-7.88,3.26-16.13,10.17-20.03c6.91-3.9,16.14-3.21,22.4,1.67
				c1.51,1.18,3.08,2.65,4.99,2.57c1.76-0.08,3.15-1.46,4.34-2.76c2.18-2.4,4.46-5.43,3.63-8.57c-0.54-2.04-2.28-3.51-4.02-4.7
				c-9.37-6.41-21.55-8.53-32.54-5.66c-8.55,2.23-16.26,7.45-21.63,14.45c-5.56,7.25-7.41,17.19-6.14,26.18
				c0.65,4.61,2.15,9.1,4.48,13.13c5.66,9.82,16.1,16.74,27.35,18.13c9.42,1.16,19.02-1.39,27.47-5.7
				c9.88-5.04,18.2-12.43,26.81-19.36c6.79-5.47,13.76-10.65,21.81-14.17c5.55-2.43,11.38-4.24,17.33-5.38
				C157.13,35.74,157.13,35.74,155.12,35.61z"/>
		</defs>
		<linearGradient id="SVGID_2_" gradientUnits="userSpaceOnUse" x1="36.3889" y1="44.4849" x2="162.0203" y2="44.4849">
			<stop  offset="0" style="stop-color:#00B5D1"/>
			<stop  offset="0.6675" style="stop-color:#005FA3"/>
			<stop  offset="1" style="stop-color:#273691"/>
		</linearGradient>
		<use xlink:href="#SVGID_15_"  style="overflow:visible;fill:url(#SVGID_2_);"/>
		<clipPath id="SVGID_3_">
			<use xlink:href="#SVGID_15_"  style="overflow:visible;"/>
		</clipPath>
	</g>
</g>
</svg>
