<svg xmlns="http://www.w3.org/2000/svg" viewBox="0 0 78.98 45.53"><title>icf_logo_25years</title><polygon points="2 33.47 0 45.53 74.95 45.53 76.95 33.47 2 33.47" style="fill:#273691"/><path d="M16.69,46.92C20,44.48,21,43.64,21,42.65c0-.71-.65-1.06-1.33-1.06a2.87,2.87,0,0,0-2.16.93l-1-1.14a4.14,4.14,0,0,1,3.13-1.32c1.72,0,3.1,1,3.1,2.59,0,1.38-1.15,2.59-3.32,4.12h3.38v1.52h-6.1Z" transform="translate(-5.3 -4.74)" style="fill:#fff"/><path d="M25.29,46.05a2.94,2.94,0,0,0,2.16.87c1,0,1.51-.54,1.51-1.21s-.54-1.24-1.46-1.24a2.33,2.33,0,0,0-1.7.67l-1.21-.33V40.18h5.57v1.48H26.28v2A2.79,2.79,0,0,1,28.1,43a2.54,2.54,0,0,1,2.61,2.63c0,1.71-1.29,2.79-3.25,2.79a4,4,0,0,1-3.12-1.21Z" transform="translate(-5.3 -4.74)" style="fill:#fff"/><path d="M37.54,44.7l-2.36-3.45h.87L37.91,44l1.85-2.78h.87L38.28,44.7v2.52h-.74Z" transform="translate(-5.3 -4.74)" style="fill:#fff"/><path d="M43.52,41.25h3.92v.66H44.27v1.93h3.11v.66H44.27v2.06h3.17v.66H43.52Z" transform="translate(-5.3 -4.74)" style="fill:#fff"/><path d="M54.5,45.9h-3l-.53,1.32h-.82l2.4-6h.92l2.41,6H55Zm-2.81-.67h2.58L53,41.91Z" transform="translate(-5.3 -4.74)" style="fill:#fff"/><path d="M60.68,44.85H59.49v2.37h-.75v-6h2.41A1.74,1.74,0,0,1,63,43.05a1.67,1.67,0,0,1-1.55,1.74l1.61,2.43H62.2Zm.38-2.94H59.49V44.2h1.57a1.15,1.15,0,1,0,0-2.29Z" transform="translate(-5.3 -4.74)" style="fill:#fff"/><path d="M66.39,45.82a2.51,2.51,0,0,0,1.88.85c1.06,0,1.4-.58,1.4-1,0-.72-.72-.92-1.51-1.13-1-.25-2-.52-2-1.69,0-1,.87-1.66,2-1.66a2.8,2.8,0,0,1,2.12.83l-.45.55a2.3,2.3,0,0,0-1.73-.72c-.71,0-1.22.39-1.22,1s.69.78,1.45,1c1,.26,2.08.56,2.08,1.81,0,.87-.59,1.76-2.2,1.76A2.93,2.93,0,0,1,66,46.38Z" transform="translate(-5.3 -4.74)" style="fill:#fff"/><path d="M39.14,7.56,34.76,34h-6L33.11,7.56Z" transform="translate(-5.3 -4.74)" style="fill:#273691"/><path d="M62.26,17.52l-6,.29c0-.4,0-.71,0-.93a5.68,5.68,0,0,0-1-3.39,3.43,3.43,0,0,0-3-1.39c-2.19,0-3.77,1.33-4.72,4a23.47,23.47,0,0,0-1.42,7.83,6,6,0,0,0,1.21,4.16,4,4,0,0,0,3.1,1.3c2.56,0,4.33-1.62,5.28-4.88l5.4.95q-3,9-11.14,9a9.27,9.27,0,0,1-7.71-3.36A12.64,12.64,0,0,1,39.63,23,18.6,18.6,0,0,1,43.1,11.88a10.84,10.84,0,0,1,9.23-4.81,9.92,9.92,0,0,1,7,2.55Q62.08,12.17,62.26,17.52Z" transform="translate(-5.3 -4.74)" style="fill:#273691"/><path d="M84.28,7.56l-.83,5H71.7l-1,5.89h10l-.83,5H70.1L68.38,34H62.12L66.5,7.56Z" transform="translate(-5.3 -4.74)" style="fill:#273691"/><path d="M8.05,32.94l.16.11a90.72,90.72,0,0,1,8-11A87.69,87.69,0,0,1,28.07,10.36a75.71,75.71,0,0,0-7.59,5.41A82.09,82.09,0,0,0,6.09,30.48a5.67,5.67,0,0,0,2,2.46" transform="translate(-5.3 -4.74)" style="fill:#febd3b"/><path d="M5.61,24.32a12.81,12.81,0,0,0-.07,4.22,88.9,88.9,0,0,1,9.39-9.26c1.86-1.57,3.86-3.12,6-4.61a72.2,72.2,0,0,1,7.12-4.31,50.32,50.32,0,0,0-7.43,3.22,67.47,67.47,0,0,0-7.13,4.3,64.74,64.74,0,0,0-7.9,6.44" transform="translate(-5.3 -4.74)" style="fill:#febd3b"/><path d="M26,5a8.27,8.27,0,0,0-4.09.11A15.91,15.91,0,0,0,17.54,7a27.19,27.19,0,0,0-8,8c-.39.58-.75,1.16-1.09,1.74a25.35,25.35,0,0,0-2.22,5,69.48,69.48,0,0,1,9.51-6.49,52.41,52.41,0,0,1,5.78-2.8,43.33,43.33,0,0,1,6.56-2.09,25.12,25.12,0,0,0-5.48.54,37.51,37.51,0,0,0-5.66,1.57,43.32,43.32,0,0,0-6.71,3.14l.18-.27a23.89,23.89,0,0,1,7.12-7.07,13.71,13.71,0,0,1,3.84-1.68,7.18,7.18,0,0,1,3.59,0c2.27.62,3.58,2.58,3.8,5.31a13.58,13.58,0,0,1-.57,4.77,22.29,22.29,0,0,1-2.47,5.52C22.78,27,18.6,30.39,14.83,31.55A71.26,71.26,0,0,1,20,21.41a82.61,82.61,0,0,1,8.1-11,87.43,87.43,0,0,0-6.55,6.7,90.24,90.24,0,0,0-5.86,7.33,72,72,0,0,0-5.73,9.4,8.55,8.55,0,0,0,2.94.14,10.84,10.84,0,0,0,2.79-.79A17.69,17.69,0,0,0,18,32a22.82,22.82,0,0,0,2.3-1.58,24.78,24.78,0,0,0,2.25-2,31,31,0,0,0,2.11-2.33,31.16,31.16,0,0,0,1.93-2.67c.16-.24.31-.48.46-.73a25.36,25.36,0,0,0,2.81-6.37,15.43,15.43,0,0,0,.59-5.46A7.66,7.66,0,0,0,29,7,5.34,5.34,0,0,0,26,5" transform="translate(-5.3 -4.74)" style="fill:#febd3b"/></svg>