<svg xmlns="http://www.w3.org/2000/svg" xmlns:xlink="http://www.w3.org/1999/xlink" viewBox="0 0 90.22 61.28"><defs><clipPath id="a"><path d="M55,50.2a10.1,10.1,0,0,0-1.1,0,10.74,10.74,0,0,0-2.18.27,10.43,10.43,0,0,0-3.93,1.91,20.73,20.73,0,0,1-1.7,1.2,4.55,4.55,0,0,1-3.49.72,3,3,0,0,1-.64-5.42,3,3,0,0,1,3.27.25,1.22,1.22,0,0,0,.73.37,1,1,0,0,0,.63-.4,1.45,1.45,0,0,0,.53-1.25,1.34,1.34,0,0,0-.58-.69,5.91,5.91,0,0,0-4.75-.82,5.79,5.79,0,0,0-3.15,2.11,5.14,5.14,0,0,0-.9,3.81,5.31,5.31,0,0,0,4.64,4.56,7,7,0,0,0,4-.83,23.37,23.37,0,0,0,3.91-2.82,14.13,14.13,0,0,1,3.18-2.07A11.76,11.76,0,0,1,56,50.3,8.27,8.27,0,0,0,55,50.2Z" style="fill:none"/></clipPath></defs><title>Asset 1</title><path d="M0,0V61.28H90.22V0H0M.84,60.44V34.87H89.38V60.44Z" style="fill:#120877"/><path d="M51.05,53V56a.72.72,0,0,1-.71.72H49a.72.72,0,0,1-.71-.72V47.85a1.61,1.61,0,0,1,1.6-1.61h5.52a.72.72,0,0,1,.71.73v.74a.72.72,0,0,1-.72.72H51.25a.19.19,0,0,0-.2.19v2.14" style="fill:#120877"/><path d="M36.8,47.29v8.4a1,1,0,0,1-1,1.05h-.64a1,1,0,0,1-1-1.05v-8.4a1,1,0,0,1,1-1h.64a1,1,0,0,1,1,1" style="fill:#120877"/><path d="M55,50.2a10.1,10.1,0,0,0-1.1,0,10.74,10.74,0,0,0-2.18.27,10.43,10.43,0,0,0-3.93,1.91,20.73,20.73,0,0,1-1.7,1.2,4.55,4.55,0,0,1-3.49.72,3,3,0,0,1-.64-5.42,3,3,0,0,1,3.27.25,1.22,1.22,0,0,0,.73.37,1,1,0,0,0,.63-.4,1.45,1.45,0,0,0,.53-1.25,1.34,1.34,0,0,0-.58-.69,5.91,5.91,0,0,0-4.75-.82,5.79,5.79,0,0,0-3.15,2.11,5.14,5.14,0,0,0-.9,3.81,5.31,5.31,0,0,0,4.64,4.56,7,7,0,0,0,4-.83,23.37,23.37,0,0,0,3.91-2.82,14.13,14.13,0,0,1,3.18-2.07A11.76,11.76,0,0,1,56,50.3a8.27,8.27,0,0,0-1-.1" style="fill:#120877"/><g style="clip-path:url(#a)"><polyline points="37.63 45.9 37.63 56.97 37.51 56.97 37.51 45.9 37.63 45.9" style="fill:#120877"/><polyline points="37.75 45.9 37.75 56.97 37.63 56.97 37.63 45.9 37.75 45.9" style="fill:#120877"/><polyline points="37.86 45.9 37.86 56.97 37.75 56.97 37.75 45.9 37.86 45.9" style="fill:#120877"/><polyline points="37.98 45.9 37.98 56.97 37.86 56.97 37.86 45.9 37.98 45.9" style="fill:#120877"/><polyline points="38.09 45.9 38.09 56.97 37.98 56.97 37.98 45.9 38.09 45.9" style="fill:#120877"/><polyline points="38.21 45.9 38.21 56.97 38.09 56.97 38.09 45.9 38.21 45.9" style="fill:#120877"/><polyline points="38.32 45.9 38.32 56.97 38.21 56.97 38.21 45.9 38.32 45.9" style="fill:#120877"/><polyline points="38.44 45.9 38.44 56.97 38.32 56.97 38.32 45.9 38.44 45.9" style="fill:#120877"/><polyline points="38.55 45.9 38.55 56.97 38.44 56.97 38.44 45.9 38.55 45.9" style="fill:#120877"/><polyline points="38.66 45.9 38.66 56.97 38.55 56.97 38.55 45.9 38.66 45.9" style="fill:#120877"/><polyline points="38.78 45.9 38.78 56.97 38.66 56.97 38.66 45.9 38.78 45.9" style="fill:#120877"/><polyline points="38.89 45.9 38.89 56.97 38.78 56.97 38.78 45.9 38.89 45.9" style="fill:#120877"/><polyline points="39.01 45.9 39.01 56.97 38.89 56.97 38.89 45.9 39.01 45.9" style="fill:#120877"/><polyline points="39.12 45.9 39.12 56.97 39.01 56.97 39.01 45.9 39.12 45.9" style="fill:#120877"/><polyline points="39.23 45.9 39.23 56.97 39.12 56.97 39.12 45.9 39.23 45.9" style="fill:#120877"/><polyline points="39.35 45.9 39.35 56.97 39.23 56.97 39.23 45.9 39.35 45.9" style="fill:#120877"/><polyline points="39.46 45.9 39.46 56.97 39.35 56.97 39.35 45.9 39.46 45.9" style="fill:#120877"/><polyline points="39.58 45.9 39.58 56.97 39.46 56.97 39.46 45.9 39.58 45.9" style="fill:#120877"/><polyline points="39.69 45.9 39.69 56.97 39.58 56.97 39.58 45.9 39.69 45.9" style="fill:#120877"/><polyline points="39.81 45.9 39.81 56.97 39.69 56.97 39.69 45.9 39.81 45.9" style="fill:#120877"/><polyline points="39.92 45.9 39.92 56.97 39.81 56.97 39.81 45.9 39.92 45.9" style="fill:#120877"/><polyline points="40.03 45.9 40.03 56.97 39.92 56.97 39.92 45.9 40.03 45.9" style="fill:#120877"/><polyline points="40.15 45.9 40.15 56.97 40.03 56.97 40.03 45.9 40.15 45.9" style="fill:#120877"/><polyline points="40.26 45.9 40.26 56.97 40.15 56.97 40.15 45.9 40.26 45.9" style="fill:#120877"/><polyline points="40.38 45.9 40.38 56.97 40.26 56.97 40.26 45.9 40.38 45.9" style="fill:#120877"/><polyline points="40.49 45.9 40.49 56.97 40.38 56.97 40.38 45.9 40.49 45.9" style="fill:#120877"/><polyline points="40.6 45.9 40.6 56.97 40.49 56.97 40.49 45.9 40.6 45.9" style="fill:#120877"/><polyline points="40.72 45.9 40.72 56.97 40.6 56.97 40.6 45.9 40.72 45.9" style="fill:#120877"/><polyline points="40.83 45.9 40.83 56.97 40.72 56.97 40.72 45.9 40.83 45.9" style="fill:#120877"/><polyline points="40.95 45.9 40.95 56.97 40.83 56.97 40.83 45.9 40.95 45.9" style="fill:#120877"/><polyline points="41.06 45.9 41.06 56.97 40.95 56.97 40.95 45.9 41.06 45.9" style="fill:#120877"/><polyline points="41.18 45.9 41.18 56.97 41.06 56.97 41.06 45.9 41.18 45.9" style="fill:#120877"/><polyline points="41.29 45.9 41.29 56.97 41.18 56.97 41.18 45.9 41.29 45.9" style="fill:#120877"/><polyline points="41.41 45.9 41.41 56.97 41.29 56.97 41.29 45.9 41.41 45.9" style="fill:#120877"/><polyline points="41.52 45.9 41.52 56.97 41.41 56.97 41.41 45.9 41.52 45.9" style="fill:#120877"/><polyline points="41.63 45.9 41.63 56.97 41.52 56.97 41.52 45.9 41.63 45.9" style="fill:#120877"/><polyline points="41.75 45.9 41.75 56.97 41.63 56.97 41.63 45.9 41.75 45.9" style="fill:#120877"/><polyline points="41.86 45.9 41.86 56.97 41.75 56.97 41.75 45.9 41.86 45.9" style="fill:#120877"/><polyline points="41.98 45.9 41.98 56.97 41.86 56.97 41.86 45.9 41.98 45.9" style="fill:#120877"/><polyline points="42.09 45.9 42.09 56.97 41.98 56.97 41.98 45.9 42.09 45.9" style="fill:#120877"/><polyline points="42.21 45.9 42.21 56.97 42.09 56.97 42.09 45.9 42.21 45.9" style="fill:#120877"/><polyline points="42.32 45.9 42.32 56.97 42.21 56.97 42.21 45.9 42.32 45.9" style="fill:#120877"/><polyline points="42.44 45.9 42.44 56.97 42.32 56.97 42.32 45.9 42.44 45.9" style="fill:#120877"/><polyline points="42.55 45.9 42.55 56.97 42.44 56.97 42.44 45.9 42.55 45.9" style="fill:#120877"/><polyline points="42.66 45.9 42.66 56.97 42.55 56.97 42.55 45.9 42.66 45.9" style="fill:#120877"/><polyline points="42.78 45.9 42.78 56.97 42.66 56.97 42.66 45.9 42.78 45.9" style="fill:#120877"/><polyline points="42.89 45.9 42.89 56.97 42.78 56.97 42.78 45.9 42.89 45.9" style="fill:#120877"/><polyline points="43.01 45.9 43.01 56.97 42.89 56.97 42.89 45.9 43.01 45.9" style="fill:#120877"/><polyline points="43.13 45.9 43.13 56.97 43.01 56.97 43.01 45.9 43.13 45.9" style="fill:#120877"/><polyline points="43.25 45.9 43.25 56.97 43.13 56.97 43.13 45.9 43.25 45.9" style="fill:#120877"/><polyline points="43.37 45.9 43.37 56.97 43.25 56.97 43.25 45.9 43.37 45.9" style="fill:#120877"/><polyline points="43.49 45.9 43.49 56.97 43.37 56.97 43.37 45.9 43.49 45.9" style="fill:#120877"/><polyline points="43.61 45.9 43.61 56.97 43.49 56.97 43.49 45.9 43.61 45.9" style="fill:#120877"/><polyline points="43.73 45.9 43.73 56.97 43.61 56.97 43.61 45.9 43.73 45.9" style="fill:#120877"/><polyline points="43.85 45.9 43.85 56.97 43.73 56.97 43.73 45.9 43.85 45.9" style="fill:#120877"/><polyline points="43.97 45.9 43.97 56.97 43.85 56.97 43.85 45.9 43.97 45.9" style="fill:#120877"/><polyline points="44.09 45.9 44.09 56.97 43.97 56.97 43.97 45.9 44.09 45.9" style="fill:#120877"/><polyline points="44.21 45.9 44.21 56.97 44.09 56.97 44.09 45.9 44.21 45.9" style="fill:#120877"/><polyline points="44.33 45.9 44.33 56.97 44.21 56.97 44.21 45.9 44.33 45.9" style="fill:#120877"/><polyline points="44.45 45.9 44.45 56.97 44.33 56.97 44.33 45.9 44.45 45.9" style="fill:#120877"/><polyline points="44.57 45.9 44.57 56.97 44.45 56.97 44.45 45.9 44.57 45.9" style="fill:#120877"/><polyline points="44.69 45.9 44.69 56.97 44.57 56.97 44.57 45.9 44.69 45.9" style="fill:#120877"/><polyline points="44.81 45.9 44.81 56.97 44.69 56.97 44.69 45.9 44.81 45.9" style="fill:#120877"/><polyline points="44.93 45.9 44.93 56.97 44.81 56.97 44.81 45.9 44.93 45.9" style="fill:#120877"/><polyline points="45.05 45.9 45.05 56.97 44.93 56.97 44.93 45.9 45.05 45.9" style="fill:#120877"/><polyline points="45.17 45.9 45.17 56.97 45.05 56.97 45.05 45.9 45.17 45.9" style="fill:#120877"/><polyline points="45.29 45.9 45.29 56.97 45.17 56.97 45.17 45.9 45.29 45.9" style="fill:#120877"/><polyline points="45.41 45.9 45.41 56.97 45.29 56.97 45.29 45.9 45.41 45.9" style="fill:#120877"/><polyline points="45.53 45.9 45.53 56.97 45.41 56.97 45.41 45.9 45.53 45.9" style="fill:#120877"/><polyline points="45.65 45.9 45.65 56.97 45.53 56.97 45.53 45.9 45.65 45.9" style="fill:#120877"/><polyline points="45.77 45.9 45.77 56.97 45.65 56.97 45.65 45.9 45.77 45.9" style="fill:#120877"/><polyline points="45.89 45.9 45.89 56.97 45.77 56.97 45.77 45.9 45.89 45.9" style="fill:#120877"/><polyline points="46.01 45.9 46.01 56.97 45.89 56.97 45.89 45.9 46.01 45.9" style="fill:#120877"/><polyline points="46.13 45.9 46.13 56.97 46.01 56.97 46.01 45.9 46.13 45.9" style="fill:#120877"/><polyline points="46.25 45.9 46.25 56.97 46.13 56.97 46.13 45.9 46.25 45.9" style="fill:#120877"/><polyline points="46.37 45.9 46.37 56.97 46.25 56.97 46.25 45.9 46.37 45.9" style="fill:#120877"/><polyline points="46.49 45.9 46.49 56.97 46.37 56.97 46.37 45.9 46.49 45.9" style="fill:#120877"/><polyline points="46.61 45.9 46.61 56.97 46.49 56.97 46.49 45.9 46.61 45.9" style="fill:#120877"/><polyline points="46.73 45.9 46.73 56.97 46.61 56.97 46.61 45.9 46.73 45.9" style="fill:#120877"/><polyline points="46.85 45.9 46.85 56.97 46.73 56.97 46.73 45.9 46.85 45.9" style="fill:#120877"/><polyline points="46.97 45.9 46.97 56.97 46.85 56.97 46.85 45.9 46.97 45.9" style="fill:#120877"/><polyline points="47.09 45.9 47.09 56.97 46.97 56.97 46.97 45.9 47.09 45.9" style="fill:#120877"/><polyline points="47.21 45.9 47.21 56.97 47.09 56.97 47.09 45.9 47.21 45.9" style="fill:#120877"/><polyline points="47.33 45.9 47.33 56.97 47.21 56.97 47.21 45.9 47.33 45.9" style="fill:#120877"/><polyline points="47.45 45.9 47.45 56.97 47.33 56.97 47.33 45.9 47.45 45.9" style="fill:#120877"/><polyline points="47.57 45.9 47.57 56.97 47.45 56.97 47.45 45.9 47.57 45.9" style="fill:#120877"/><polyline points="47.69 45.9 47.69 56.97 47.57 56.97 47.57 45.9 47.69 45.9" style="fill:#120877"/><polyline points="47.81 45.9 47.81 56.97 47.69 56.97 47.69 45.9 47.81 45.9" style="fill:#120877"/><polyline points="47.93 45.9 47.93 56.97 47.81 56.97 47.81 45.9 47.93 45.9" style="fill:#120877"/><polyline points="48.05 45.9 48.05 56.97 47.93 56.97 47.93 45.9 48.05 45.9" style="fill:#120877"/><polyline points="48.16 45.9 48.16 56.97 48.05 56.97 48.05 45.9 48.16 45.9" style="fill:#120877"/><polyline points="48.28 45.9 48.28 56.97 48.16 56.97 48.16 45.9 48.28 45.9" style="fill:#120877"/><polyline points="48.41 45.9 48.41 56.97 48.28 56.97 48.28 45.9 48.41 45.9" style="fill:#120877"/><polyline points="48.52 45.9 48.52 56.97 48.41 56.97 48.41 45.9 48.52 45.9" style="fill:#120877"/><polyline points="48.65 45.9 48.65 56.97 48.52 56.97 48.52 45.9 48.65 45.9" style="fill:#120877"/><polyline points="48.77 45.9 48.77 56.97 48.65 56.97 48.65 45.9 48.77 45.9" style="fill:#120877"/><polyline points="48.88 45.9 48.88 56.97 48.77 56.97 48.77 45.9 48.88 45.9" style="fill:#120877"/><polyline points="49 45.9 49 56.97 48.88 56.97 48.88 45.9 49 45.9" style="fill:#120877"/><polyline points="49.12 45.9 49.12 56.97 49 56.97 49 45.9 49.12 45.9" style="fill:#120877"/><polyline points="49.24 45.9 49.24 56.97 49.12 56.97 49.12 45.9 49.24 45.9" style="fill:#120877"/><polyline points="49.36 45.9 49.36 56.97 49.24 56.97 49.24 45.9 49.36 45.9" style="fill:#120877"/><polyline points="49.48 45.9 49.48 56.97 49.36 56.97 49.36 45.9 49.48 45.9" style="fill:#120877"/><polyline points="49.6 45.9 49.6 56.97 49.48 56.97 49.48 45.9 49.6 45.9" style="fill:#120877"/><polyline points="49.72 45.9 49.72 56.97 49.6 56.97 49.6 45.9 49.72 45.9" style="fill:#120877"/><polyline points="49.84 45.9 49.84 56.97 49.72 56.97 49.72 45.9 49.84 45.9" style="fill:#120877"/><polyline points="49.96 45.9 49.96 56.97 49.84 56.97 49.84 45.9 49.96 45.9" style="fill:#120877"/><polyline points="50.08 45.9 50.08 56.97 49.96 56.97 49.96 45.9 50.08 45.9" style="fill:#120877"/><polyline points="50.2 45.9 50.2 56.97 50.08 56.97 50.08 45.9 50.2 45.9" style="fill:#120877"/><polyline points="50.32 45.9 50.32 56.97 50.2 56.97 50.2 45.9 50.32 45.9" style="fill:#120877"/><polyline points="50.44 45.9 50.44 56.97 50.32 56.97 50.32 45.9 50.44 45.9" style="fill:#120877"/><polyline points="50.56 45.9 50.56 56.97 50.44 56.97 50.44 45.9 50.56 45.9" style="fill:#120877"/><polyline points="50.68 45.9 50.68 56.97 50.56 56.97 50.56 45.9 50.68 45.9" style="fill:#120877"/><polyline points="50.8 45.9 50.8 56.97 50.68 56.97 50.68 45.9 50.8 45.9" style="fill:#120877"/><polyline points="50.92 45.9 50.92 56.97 50.8 56.97 50.8 45.9 50.92 45.9" style="fill:#120877"/><polyline points="51.04 45.9 51.04 56.97 50.92 56.97 50.92 45.9 51.04 45.9" style="fill:#120877"/><polyline points="51.16 45.9 51.16 56.97 51.04 56.97 51.04 45.9 51.16 45.9" style="fill:#120877"/><polyline points="51.28 45.9 51.28 56.97 51.16 56.97 51.16 45.9 51.28 45.9" style="fill:#120877"/><polyline points="51.4 45.9 51.4 56.97 51.28 56.97 51.28 45.9 51.4 45.9" style="fill:#120877"/><polyline points="51.52 45.9 51.52 56.97 51.4 56.97 51.4 45.9 51.52 45.9" style="fill:#120877"/><polyline points="51.64 45.9 51.64 56.97 51.52 56.97 51.52 45.9 51.64 45.9" style="fill:#120877"/><polyline points="51.76 45.9 51.76 56.97 51.64 56.97 51.64 45.9 51.76 45.9" style="fill:#120877"/><polyline points="51.88 45.9 51.88 56.97 51.76 56.97 51.76 45.9 51.88 45.9" style="fill:#120877"/><polyline points="52 45.9 52 56.97 51.88 56.97 51.88 45.9 52 45.9" style="fill:#120877"/><polyline points="52.12 45.9 52.12 56.97 52 56.97 52 45.9 52.12 45.9" style="fill:#120877"/><polyline points="52.24 45.9 52.24 56.97 52.12 56.97 52.12 45.9 52.24 45.9" style="fill:#120877"/><polyline points="52.36 45.9 52.36 56.97 52.24 56.97 52.24 45.9 52.36 45.9" style="fill:#120877"/><polyline points="52.48 45.9 52.48 56.97 52.36 56.97 52.36 45.9 52.48 45.9" style="fill:#120877"/><polyline points="52.6 45.9 52.6 56.97 52.48 56.97 52.48 45.9 52.6 45.9" style="fill:#120877"/><polyline points="52.72 45.9 52.72 56.97 52.6 56.97 52.6 45.9 52.72 45.9" style="fill:#120877"/><polyline points="52.84 45.9 52.84 56.97 52.72 56.97 52.72 45.9 52.84 45.9" style="fill:#120877"/><polyline points="52.96 45.9 52.96 56.97 52.84 56.97 52.84 45.9 52.96 45.9" style="fill:#120877"/><polyline points="53.08 45.9 53.08 56.97 52.96 56.97 52.96 45.9 53.08 45.9" style="fill:#120877"/><polyline points="53.2 45.9 53.2 56.97 53.08 56.97 53.08 45.9 53.2 45.9" style="fill:#120877"/><polyline points="53.32 45.9 53.32 56.97 53.2 56.97 53.2 45.9 53.32 45.9" style="fill:#120877"/><polyline points="53.44 45.9 53.44 56.97 53.32 56.97 53.32 45.9 53.44 45.9" style="fill:#120877"/><polyline points="53.56 45.9 53.56 56.97 53.44 56.97 53.44 45.9 53.56 45.9" style="fill:#120877"/><polyline points="53.68 45.9 53.68 56.97 53.56 56.97 53.56 45.9 53.68 45.9" style="fill:#120877"/><polyline points="53.8 45.9 53.8 56.97 53.68 56.97 53.68 45.9 53.8 45.9" style="fill:#120877"/><polyline points="53.92 45.9 53.92 56.97 53.8 56.97 53.8 45.9 53.92 45.9" style="fill:#120877"/><polyline points="54.04 45.9 54.04 56.97 53.92 56.97 53.92 45.9 54.04 45.9" style="fill:#120877"/><polyline points="54.16 45.9 54.16 56.97 54.04 56.97 54.04 45.9 54.16 45.9" style="fill:#120877"/><polyline points="54.28 45.9 54.28 56.97 54.16 56.97 54.16 45.9 54.28 45.9" style="fill:#120877"/><polyline points="54.4 45.9 54.4 56.97 54.28 56.97 54.28 45.9 54.4 45.9" style="fill:#120877"/><polyline points="54.52 45.9 54.52 56.97 54.4 56.97 54.4 45.9 54.52 45.9" style="fill:#120877"/><polyline points="54.64 45.9 54.64 56.97 54.52 56.97 54.52 45.9 54.64 45.9" style="fill:#120877"/><polyline points="54.76 45.9 54.76 56.97 54.64 56.97 54.64 45.9 54.76 45.9" style="fill:#120877"/><polyline points="54.88 45.9 54.88 56.97 54.76 56.97 54.76 45.9 54.88 45.9" style="fill:#120877"/><polyline points="55 45.9 55 56.97 54.88 56.97 54.88 45.9 55 45.9" style="fill:#120877"/><polyline points="55.12 45.9 55.12 56.97 55 56.97 55 45.9 55.12 45.9" style="fill:#120877"/><polyline points="55.24 45.9 55.24 56.97 55.12 56.97 55.12 45.9 55.24 45.9" style="fill:#120877"/><polyline points="55.36 45.9 55.36 56.97 55.24 56.97 55.24 45.9 55.36 45.9" style="fill:#120877"/><polyline points="55.48 45.9 55.48 56.97 55.36 56.97 55.36 45.9 55.48 45.9" style="fill:#120877"/><polyline points="55.6 45.9 55.6 56.97 55.48 56.97 55.48 45.9 55.6 45.9" style="fill:#120877"/><polyline points="55.72 45.9 55.72 56.97 55.6 56.97 55.6 45.9 55.72 45.9" style="fill:#120877"/><polyline points="55.84 45.9 55.84 56.97 55.72 56.97 55.72 45.9 55.84 45.9" style="fill:#120877"/><polyline points="55.96 45.9 55.96 56.97 55.84 56.97 55.84 45.9 55.96 45.9" style="fill:#120877"/><polyline points="55.96 56.97 55.96 45.9 55.96 56.97" style="fill:#120877"/></g><polyline points="17.77 41.61 17.77 39.71 16.82 41.28 16.59 41.28 15.64 39.73 15.64 41.61 15.13 41.61 15.13 38.74 15.57 38.74 16.71 40.64 17.83 38.74 18.27 38.74 18.27 41.61 17.77 41.61" style="fill:#120877"/><path d="M21,41H19.6l-.29.66h-.55l1.3-2.87h.52l1.3,2.87h-.56L21,41m-.17-.42-.54-1.26-.54,1.26Z" style="fill:#120877"/><path d="M22.12,41.31l.18-.42a1.57,1.57,0,0,0,.95.32c.45,0,.64-.16.64-.37,0-.62-1.71-.22-1.71-1.28,0-.47.37-.86,1.16-.86a1.84,1.84,0,0,1,.95.25l-.17.42a1.59,1.59,0,0,0-.79-.23c-.44,0-.62.17-.62.39,0,.61,1.7.21,1.7,1.27,0,.46-.37.85-1.16.85a1.87,1.87,0,0,1-1.13-.34" style="fill:#120877"/><polyline points="25.61 39.19 24.65 39.19 24.65 38.74 27.09 38.74 27.09 39.19 26.14 39.19 26.14 41.61 25.61 41.61 25.61 39.19" style="fill:#120877"/><polyline points="29.76 41.16 29.76 41.61 27.61 41.61 27.61 38.74 29.71 38.74 29.71 39.19 28.14 39.19 28.14 39.93 29.53 39.93 29.53 40.37 28.14 40.37 28.14 41.16 29.76 41.16" style="fill:#120877"/><path d="M32.36,41.61l-.59-.84H31v.84h-.53V38.74h1.18c.76,0,1.22.38,1.22,1a.92.92,0,0,1-.61.91l.66.94h-.57m-.72-2.42H31v1.14h.63c.46,0,.71-.21.71-.57S32.1,39.19,31.64,39.19Z" style="fill:#120877"/><path d="M34.65,40.18a1.55,1.55,0,0,1,2.67-1L37,39.5a1,1,0,0,0-.76-.33A1,1,0,1,0,37,40.84l.35.33a1.55,1.55,0,0,1-2.67-1" style="fill:#120877"/><polyline points="40.1 41.16 40.1 41.61 37.95 41.61 37.95 38.74 40.05 38.74 40.05 39.19 38.49 39.19 38.49 39.93 39.87 39.93 39.87 40.37 38.49 40.37 38.49 41.16 40.1 41.16" style="fill:#120877"/><path d="M42.7,41.61l-.59-.84h-.76v.84h-.53V38.74H42c.76,0,1.22.38,1.22,1a.92.92,0,0,1-.61.91l.66.94H42.7M42,39.19h-.63v1.14H42c.46,0,.71-.21.71-.57S42.44,39.19,42,39.19Z" style="fill:#120877"/><polyline points="44.48 39.19 43.53 39.19 43.53 38.74 45.97 38.74 45.97 39.19 45.02 39.19 45.02 41.61 44.48 41.61 44.48 39.19" style="fill:#120877"/><polyline points="46.49 38.74 47.02 38.74 47.02 41.61 46.49 41.61 46.49 38.74" style="fill:#120877"/><polyline points="48.45 39.19 48.45 40.06 49.84 40.06 49.84 40.51 48.45 40.51 48.45 41.61 47.92 41.61 47.92 38.74 50.01 38.74 50.01 39.19 48.45 39.19" style="fill:#120877"/><polyline points="50.65 38.74 51.18 38.74 51.18 41.61 50.65 41.61 50.65 38.74" style="fill:#120877"/><polyline points="54.23 41.16 54.23 41.61 52.08 41.61 52.08 38.74 54.18 38.74 54.18 39.19 52.61 39.19 52.61 39.93 54 39.93 54 40.37 52.61 40.37 52.61 41.16 54.23 41.16" style="fill:#120877"/><path d="M55,38.74H56.2a1.44,1.44,0,1,1,0,2.87H55V38.74m1.23,2.42a1,1,0,1,0,0-2h-.7v2Z" style="fill:#120877"/><path d="M59.5,40.18a1.56,1.56,0,0,1,2.68-1l-.35.32a1,1,0,0,0-.76-.33,1,1,0,1,0,.76,1.67l.35.33a1.56,1.56,0,0,1-2.68-1" style="fill:#120877"/><path d="M62.54,40.18a1.55,1.55,0,1,1,1.55,1.47,1.48,1.48,0,0,1-1.55-1.47m2.56,0a1,1,0,1,0-1,1A1,1,0,0,0,65.1,40.18Z" style="fill:#120877"/><path d="M68.14,41H66.71l-.29.66h-.54l1.29-2.87h.52L69,41.61h-.56L68.14,41M68,40.53l-.54-1.26-.54,1.26Z" style="fill:#120877"/><path d="M69.23,40.18a1.55,1.55,0,0,1,2.67-1l-.34.32a1,1,0,0,0-.77-.33,1,1,0,1,0,0,2,1,1,0,0,0,.77-.34l.34.33a1.55,1.55,0,0,1-2.67-1" style="fill:#120877"/><polyline points="75.09 38.74 75.09 41.61 74.55 41.61 74.55 40.38 73.07 40.38 73.07 41.61 72.53 41.61 72.53 38.74 73.07 38.74 73.07 39.92 74.55 39.92 74.55 38.74 75.09 38.74" style="fill:#120877"/><polyline points="12.99 5.3 19.7 20.06 26.42 5.3 33.64 5.3 33.64 30.61 27.79 30.61 27.76 14.58 21.87 28.08 17.54 28.08 11.65 14.58 11.65 30.61 5.77 30.61 5.77 5.3 12.99 5.3" style="fill:#fff"/><path d="M49.75,10.71a6.85,6.85,0,0,0-6.86,7.12A6.89,6.89,0,0,0,49.75,25a9.39,9.39,0,0,0,6.28-3L59.9,26.2a15.14,15.14,0,0,1-10.51,4.69c-7.62,0-13.28-5.56-13.28-13S41.92,5.12,49.64,5.12A14.53,14.53,0,0,1,59.86,9.45L56,14a8.62,8.62,0,0,0-6.28-3.32" style="fill:#fff"/><path d="M74.3,10.71a6.85,6.85,0,0,0-6.86,7.12A6.89,6.89,0,0,0,74.3,25a9.39,9.39,0,0,0,6.28-3l3.87,4.15a15.14,15.14,0,0,1-10.51,4.69c-7.62,0-13.28-5.56-13.28-13S66.47,5.12,74.19,5.12A14.53,14.53,0,0,1,84.41,9.45L80.58,14a8.62,8.62,0,0,0-6.28-3.32" style="fill:#fff"/></svg>