<svg xmlns="http://www.w3.org/2000/svg" viewBox="0 0 62.67 43.46"><title>quote</title><path d="M27.9,28.82a24.3,24.3,0,0,1-6.06,7.78,28.3,28.3,0,0,1-8.92,5A31.47,31.47,0,0,1,2.29,43.46V41.15c5.33-1.08,9.38-2.81,12.12-5.2s4.12-6.05,4.12-11c0-3.07-.46-5.3-1.38-6.67a12.1,12.1,0,0,1-4,2.17A13.38,13.38,0,0,1,9.38,21,8.34,8.34,0,0,1,2.4,18,10.28,10.28,0,0,1,0,11.54q0-5.65,4-8.6A15.25,15.25,0,0,1,13.27,0,15.26,15.26,0,0,1,25.62,5.49a19.71,19.71,0,0,1,4.57,13A22.63,22.63,0,0,1,27.9,28.82Zm32.48,0a24.3,24.3,0,0,1-6.06,7.78,28.3,28.3,0,0,1-8.92,5,31.52,31.52,0,0,1-10.63,1.83V41.15q8-1.62,12.12-5.2T51,25a13.07,13.07,0,0,0-1.37-6.67,12.2,12.2,0,0,1-4,2.17,13.43,13.43,0,0,1-3.77.57,8.32,8.32,0,0,1-7-3.05,10.28,10.28,0,0,1-2.4-6.45q0-5.65,4-8.6A15.22,15.22,0,0,1,45.74,0,15.23,15.23,0,0,1,58.09,5.49a19.71,19.71,0,0,1,4.58,13A22.63,22.63,0,0,1,60.38,28.82Z" style="fill:#eaebef"/></svg>