<svg xmlns="http://www.w3.org/2000/svg" viewBox="0 0 177 119"><title>the_new_school</title><rect width="177" height="119" style="fill:#e82e21"/><path d="M22.9,15V33H17.1V15H10V10H30v5Z" style="fill:#fff"/><path d="M54,24H39v9H33.4V10H39v9H54V10h6V33H54Z" style="fill:#fff"/><path d="M63,33V10H79v5H68.8v4.1H77V24H68.8v4H79v5Z" style="fill:#fff"/><path d="M22.6,46.3h-.9V61H16V38h6.7L36.1,52.4H37V38h5.8V61H36.3Z" style="fill:#fff"/><path d="M46,61V38H62.4v5H51.8v4.1H61V52H51.8v4H62.4v5Z" style="fill:#fff"/><path d="M64.1,38h6.4l5,18.3h1.4L81.3,38H92.1l5.2,18.3h1.4L103,38h6.5l-6.4,23H93L87.7,42.7H86.1L81.2,61H71Z" style="fill:#fff"/><path d="M15,73c0-4.9,3.9-7.5,8.9-7.5a18.25,18.25,0,0,1,7.9,1.8l-1.1,4.9a14.59,14.59,0,0,0-7-1.8c-1.8,0-3,.7-3,1.9,0,3.7,11.8,1.6,11.8,9.4,0,4.1-2.9,7.7-9.1,7.7a18.66,18.66,0,0,1-8-1.5l.2-5.3a18.25,18.25,0,0,0,7.9,1.8c2.5,0,3.2-.9,3.2-2C26.8,79.1,15,81.2,15,73Z" style="fill:#fff"/><path d="M52.5,88.7a17.41,17.41,0,0,1-6,.8,11.82,11.82,0,0,1-12-11.6v-.3c0-6.5,5-11.9,12.5-11.9a16.23,16.23,0,0,1,5.8.7l-.5,5.2a14.64,14.64,0,0,0-5.1-.7c-4.3,0-6.8,2.5-6.8,6.8s2.8,6.7,6.9,6.7a12.43,12.43,0,0,0,5.1-.8Z" style="fill:#fff"/><path d="M77,80.2H61.8V89H56V66h5.8v9H77V66h5.8V89H77Z" style="fill:#fff"/><path d="M144.1,66h5.8V83.5H167V89H144.1Z" style="fill:#fff"/><path d="M128,65.5c7.9,0,13.6,4.1,13.6,11.8,0,8.1-6.2,12.1-13.6,12.1s-13.7-4.1-13.7-12C114.3,69.9,119.9,65.5,128,65.5Zm-.1,19.1c4.5,0,7.8-2.3,7.8-7.4,0-4.6-3.2-6.9-7.7-6.9s-7.7,2.2-7.7,7.1S123.5,84.6,127.9,84.6Z" style="fill:#fff"/><path d="M98.8,65.5c7.9,0,13.6,4.1,13.6,11.8,0,8.1-6.2,12.1-13.6,12.1s-13.7-4.1-13.7-12C85.1,69.9,90.7,65.5,98.8,65.5Zm-.1,19.1c4.5,0,7.8-2.3,7.8-7.4,0-4.6-3.2-6.9-7.7-6.9S91,72.6,91,77.4,94.2,84.6,98.7,84.6Z" style="fill:#fff"/><path d="M16,99V94H167v5Z" style="fill:#fff"/><path d="M16,109v-4.9H167V109Z" style="fill:#fff"/></svg>