<svg xmlns="http://www.w3.org/2000/svg" viewBox="0 0 442.06 46.96"><title>Asset 1</title><path d="M0,3.71V1.06H16.57l-.06,2.65H13a3.52,3.52,0,0,0-1.24.15c-.24.1-.36.38-.36.83a11.24,11.24,0,0,0,.94,3l12.27,30.5L38.5,6.29A4.52,4.52,0,0,0,38.82,5a1.06,1.06,0,0,0-.23-.69,1.35,1.35,0,0,0-.75-.4,10,10,0,0,0-2.26-.19H33.47l-.13-2.65H46.75l-.14,2.65H44.7a2.69,2.69,0,0,0-2.35,1,21.26,21.26,0,0,0-1.73,3.37c-.68,1.55-1.06,2.43-1.17,2.66-.16.39-.46,1.07-.89,2.05L23.76,46.09H22.65L7.32,8.85A32.45,32.45,0,0,0,5.51,4.94a2.24,2.24,0,0,0-1.26-1,7.76,7.76,0,0,0-1.94-.19Z" style="fill:#273691"/><path d="M41.08,43h1.38a3.42,3.42,0,0,0,1.87-.35A6,6,0,0,0,46,40.09l9.51-21.92h1.11l9,22.84a4.29,4.29,0,0,0,1,1.67,3,3,0,0,0,1.68.31h1v2.12H56.46L56.52,43h2a8.08,8.08,0,0,0,1.82-.13c.32-.09.48-.26.48-.49a5.41,5.41,0,0,0-.26-1.29l-2-5.29H50.25l-2,4.82-.25.63a3.38,3.38,0,0,0-.29,1.09c0,.44.78.66,2.33.66h2.37v2.12H41.14Zm10-9.25h6.81l-3.1-8.64Z" style="fill:#273691"/><path d="M72.83,21.33V19.22H87.62l-.07,2.11H85.91a13.52,13.52,0,0,0-3,.16,1.55,1.55,0,0,0-.54.37A1.79,1.79,0,0,0,82.14,23V41.08a3.17,3.17,0,0,0,.26,1.46,1.13,1.13,0,0,0,1.06.45h7.12a10.28,10.28,0,0,0,3.7-.35,2.46,2.46,0,0,0,.79-.73,3,3,0,0,0,.44-1.44c0-.56.1-1.16.19-1.8s.15-1.21.17-1.69l1.92.07-1.06,8.06H73.35V43h2c1.24,0,1.9-.09,2-.27a2.61,2.61,0,0,0,.19-1.11V23.05c0-.78-.16-1.27-.47-1.45a6.09,6.09,0,0,0-2.37-.27Z" style="fill:#273691"/><path d="M101.35,45.11V43h1.84a6.17,6.17,0,0,0,2.32-.25c.3-.18.45-.64.45-1.39V23.05c0-.75-.16-1.22-.48-1.42a4.38,4.38,0,0,0-2-.3h-1.85l-.06-2.11h22.9v7h-1.83c0-2.68-.2-4.2-.58-4.56a1.61,1.61,0,0,0-1.15-.34h-9c-.81,0-1.23.32-1.26,1v6.79c0,.62.07,1,.22,1.12a2.06,2.06,0,0,0,1.17.2h5.16c.64,0,1-.1,1.2-.31a2.53,2.53,0,0,0,.25-1.42V27.34h1.77V36h-1.77a13.44,13.44,0,0,0-.18-3c-.12-.3-.52-.45-1.21-.45H112a1.71,1.71,0,0,0-1.16.26,1.54,1.54,0,0,0-.23,1v7.34a1.83,1.83,0,0,0,.23,1.13,1.58,1.58,0,0,0,1.09.25h6.34a16.14,16.14,0,0,0,3.42-.2,2.32,2.32,0,0,0,1-.49,1.94,1.94,0,0,0,.39-.52,5.24,5.24,0,0,0,.24-.79,7,7,0,0,0,.19-1c.06-.65.22-1.66.48-3l2.11.27-1.38,8.39ZM112.17,14.2,115.6,3.51h4.63L114.56,14.2Z" style="fill:#273691"/><path d="M130.6,21.33V19.22h12.14q6.09,0,9.15,3a6.14,6.14,0,0,1,1.74,4.56,4.08,4.08,0,0,1-.73,2.6,11.62,11.62,0,0,1-1.29,1.43,7,7,0,0,1-1.1.82,11.67,11.67,0,0,1-2,1l7.38,9.24a3.3,3.3,0,0,0,.94.89,2.5,2.5,0,0,0,1.05.17h1.19L159,45.11,152.12,45,143.8,33.35c-1.31.09-2.61.13-3.9.13v7.73c0,1,.28,1.54.85,1.64a18,18,0,0,0,2.65.14h1.51l-.06,2.12H131.11V43h1.79c1.24,0,1.91-.1,2-.3a2.82,2.82,0,0,0,.34-1.48v-18c0-.83-.16-1.34-.48-1.55a5.11,5.11,0,0,0-2.23-.3Zm9.3,10.51H142q6.42,0,6.42-5.29A4.07,4.07,0,0,0,146.59,23a9,9,0,0,0-5-1.24c-.87,0-1.37.16-1.48.47a2.7,2.7,0,0,0-.18,1Z" style="fill:#273691"/><path d="M162.61,21.33V19.22h13.53v2.11h-.6a9.22,9.22,0,0,0-2.8.27c-.47.18-.7.65-.7,1.39V41.21c0,.79.23,1.29.68,1.49a9.43,9.43,0,0,0,3,.29h1.39v2.12h-13.8V43h1.18a6.22,6.22,0,0,0,2.4-.28q.51-.28.51-1.44V23.05c0-.77-.17-1.25-.52-1.44a6.46,6.46,0,0,0-2.46-.28Z" style="fill:#273691"/><path d="M180.7,45.11V43h1.84a6.17,6.17,0,0,0,2.32-.25c.3-.18.45-.64.45-1.39V23.05c0-.75-.16-1.22-.48-1.42a4.41,4.41,0,0,0-2-.3H181l-.07-2.11H203.8v7H202c0-2.68-.19-4.2-.58-4.56a1.57,1.57,0,0,0-1.14-.34h-9c-.81,0-1.23.32-1.26,1v6.79c0,.62.07,1,.22,1.12a2,2,0,0,0,1.16.2h5.16c.65,0,1.05-.1,1.21-.31a2.65,2.65,0,0,0,.24-1.42V27.34h1.78V36h-1.78a14.47,14.47,0,0,0-.17-3c-.12-.3-.52-.45-1.21-.45h-5.23a1.69,1.69,0,0,0-1.15.26,1.54,1.54,0,0,0-.23,1v7.34a1.83,1.83,0,0,0,.23,1.13,1.58,1.58,0,0,0,1.09.25h6.34a16,16,0,0,0,3.41-.2,2.26,2.26,0,0,0,1-.49,1.81,1.81,0,0,0,.4-.52,5.24,5.24,0,0,0,.24-.79,8.67,8.67,0,0,0,.19-1c.06-.65.22-1.66.48-3l2.11.27L204,45.11Z" style="fill:#273691"/><path d="M222.15,1.06H240q9.71,0,13.75,1.29a17.28,17.28,0,0,1,8.8,6.19,20.9,20.9,0,0,1,4.05,12.87,23,23,0,0,1-6.66,16.8q-6.81,6.9-19.56,6.9h-17l-.06-2.58h1.79a6.65,6.65,0,0,0,2.78-.3,1.47,1.47,0,0,0,.49-.69,7.14,7.14,0,0,0,.16-1.91V6.08c0-1.15-.1-1.8-.31-1.94a2.11,2.11,0,0,0-.75-.3,12,12,0,0,0-2.31-.13h-2.77ZM233.84,39.5a5.34,5.34,0,0,0,.21,2,2,2,0,0,0,.53.52,1.73,1.73,0,0,0,.67.26c.24,0,.57.08,1,.12s1.8.1,3.78.1a29.9,29.9,0,0,0,5.93-.6,21.87,21.87,0,0,0,5.12-1.63,17,17,0,0,0,3.83-2.5,14.69,14.69,0,0,0,2.74-3.12,17.75,17.75,0,0,0,1.75-3.58,19.43,19.43,0,0,0,1.24-6.57,27.19,27.19,0,0,0-.38-5.08A18.67,18.67,0,0,0,259,15.56,18.93,18.93,0,0,0,257,12a16.12,16.12,0,0,0-3-3.13,19.59,19.59,0,0,0-4-2.47,25.55,25.55,0,0,0-11-2.19h-2.44a5.24,5.24,0,0,0-1.67.19c-.69.27-1,1.24-1,2.92Z" style="fill:#273691"/><path d="M271.27,45.11V43h1.84a6.21,6.21,0,0,0,2.32-.25c.3-.18.45-.64.45-1.39V23.05c0-.75-.16-1.22-.48-1.42a4.44,4.44,0,0,0-2-.3h-1.85l-.07-2.11h22.91v7h-1.84c0-2.68-.19-4.2-.58-4.56a1.59,1.59,0,0,0-1.14-.34h-9.05c-.8,0-1.22.32-1.25,1v6.79c0,.62.07,1,.21,1.12a2.11,2.11,0,0,0,1.17.2h5.16c.65,0,1.05-.1,1.21-.31a2.65,2.65,0,0,0,.24-1.42V27.34h1.77V36H288.5a13.44,13.44,0,0,0-.18-3c-.11-.3-.52-.45-1.2-.45h-5.23a1.69,1.69,0,0,0-1.15.26,1.48,1.48,0,0,0-.23,1v7.34a1.76,1.76,0,0,0,.23,1.13,1.58,1.58,0,0,0,1.09.25h6.33a16.08,16.08,0,0,0,3.42-.2,2.26,2.26,0,0,0,.95-.49,1.81,1.81,0,0,0,.4-.52,5.24,5.24,0,0,0,.24-.79,6.85,6.85,0,0,0,.18-1c.07-.65.23-1.66.49-3l2.11.27-1.39,8.39Z" style="fill:#273691"/><path d="M300.51,21.33V19.22h14.78l-.06,2.11h-1.64a13.39,13.39,0,0,0-3,.16,1.55,1.55,0,0,0-.54.37,1.77,1.77,0,0,0-.26,1.13V41.08a3,3,0,0,0,.27,1.46,1.13,1.13,0,0,0,1.06.45h7.12c2.09,0,3.32-.11,3.69-.35a2.36,2.36,0,0,0,.79-.73,2.92,2.92,0,0,0,.45-1.44c0-.56.1-1.16.19-1.8s.15-1.21.17-1.69l1.92.07-1.07,8.06H301V43h2q1.86,0,2-.27a2.59,2.59,0,0,0,.2-1.11V23.05c0-.78-.16-1.27-.47-1.45a6.09,6.09,0,0,0-2.37-.27Z" style="fill:#273691"/><path d="M330.14,29.19v-4l16.32-4.82v4Z" style="fill:#273691"/><path d="M354.24,47q-.53-3-2.58-13.07l2.33-.28.85,4.1a8.48,8.48,0,0,0,.72,2.47,3,3,0,0,0,.64.57,3.9,3.9,0,0,0,.7.36l1.81.64a19.59,19.59,0,0,0,6.57,1.18,12.35,12.35,0,0,0,5.2-.93,7.87,7.87,0,0,0,3.21-2.79,6.69,6.69,0,0,0,1.22-3.67,7.58,7.58,0,0,0-.48-2.94,8.29,8.29,0,0,0-1.22-2,13,13,0,0,0-1.91-1.82,33.89,33.89,0,0,0-4.84-3.06l-2.7-1.52a30.1,30.1,0,0,1-5.2-3.37,23.35,23.35,0,0,1-1.89-2,8.48,8.48,0,0,1-1.17-1.86,11.11,11.11,0,0,1-1-4.65,10.21,10.21,0,0,1,1.13-4.73,11.61,11.61,0,0,1,3-3.74A13.85,13.85,0,0,1,367.66.53a14.18,14.18,0,0,1,4.49.66,15.68,15.68,0,0,0,2.26.66c.18,0,.36-.14.53-.42a3.19,3.19,0,0,0,.31-1.28L377.49,0l1,12.09-2.37.07-.59-5.87a13.9,13.9,0,0,0-6-2.36,17.56,17.56,0,0,0-3.28-.29,7.69,7.69,0,0,0-3.52.89A7.24,7.24,0,0,0,359.93,7a5.87,5.87,0,0,0-1.06,3.16,8.77,8.77,0,0,0,.29,2.48,5.93,5.93,0,0,0,.88,1.76A13.58,13.58,0,0,0,361.32,16,12.39,12.39,0,0,0,363,17.41a45.83,45.83,0,0,0,4.09,2.53l3.63,2A30.66,30.66,0,0,1,376,25.31a23.59,23.59,0,0,1,2.08,2.09,9.42,9.42,0,0,1,1.2,1.75,8.69,8.69,0,0,1,1,4,11.65,11.65,0,0,1-.62,3.88,11.15,11.15,0,0,1-1.88,3.37,13.06,13.06,0,0,1-3,2.73,16.69,16.69,0,0,1-9.45,2.53,18.9,18.9,0,0,1-5.19-.59,13.1,13.1,0,0,0-2.47-.6c-.79,0-1.19.46-1.19,1.39l.06.85Z" style="fill:#273691"/><path d="M386.45,32.44a16.48,16.48,0,0,1,.71-4.87A12.58,12.58,0,0,1,392,20.83a12.51,12.51,0,0,1,7.46-2.34,13.06,13.06,0,0,1,10.74,4.85,13.79,13.79,0,0,1,2.8,9q0,7.83-5.48,11.49a12.71,12.71,0,0,1-7.27,2.12,13.63,13.63,0,0,1-10.9-5A12.73,12.73,0,0,1,386.45,32.44Zm5-1a16,16,0,0,0,.8,5.09,11.62,11.62,0,0,0,2.09,3.9,8,8,0,0,0,6.16,3.23A6.3,6.3,0,0,0,405.59,41c1.5-1.9,2.26-4.67,2.26-8.32q0-6.78-3.68-10.15a6.85,6.85,0,0,0-4.77-1.94,7,7,0,0,0-5.47,2.68Q391.49,26.15,391.48,31.44Z" style="fill:#273691"/><path d="M417.1,21.33V19.22h14.78l-.06,2.11h-1.65a13.33,13.33,0,0,0-3,.16,1.55,1.55,0,0,0-.54.37A1.77,1.77,0,0,0,426.4,23V41.08a3,3,0,0,0,.27,1.46,1.11,1.11,0,0,0,1.05.45h7.13a10.25,10.25,0,0,0,3.69-.35,2.36,2.36,0,0,0,.79-.73,2.82,2.82,0,0,0,.44-1.44c0-.56.11-1.16.2-1.8s.14-1.21.17-1.69l1.92.07L441,45.11H417.62V43h2q1.84,0,2-.27a2.61,2.61,0,0,0,.19-1.11V23.05c0-.78-.15-1.27-.46-1.45a6.09,6.09,0,0,0-2.37-.27Z" style="fill:#273691"/></svg>