<svg xmlns="http://www.w3.org/2000/svg" viewBox="0 0 743.07 708.66"><title>venus_flower</title><g style="opacity:0.1"><path d="M371.66,8.5A7.86,7.86,0,0,1,376.27,10c8.39,6.2,16.32,12.73,23,18.3a400.69,400.69,0,0,1,34.2,32c18.73,19.83,33.44,38.31,45,56.48,15.51,24.46,26.22,45.64,33.72,66.66,2.25,6.31,6.85,9.55,13.67,9.63,20.88.24,43.25,3.39,70.4,9.92,32.49,7.8,64.94,21.29,99.2,41.23a365,365,0,0,1,36.18,24.38,8.26,8.26,0,0,1,2.6,9,315,315,0,0,1-12.68,33.89,442.59,442.59,0,0,1-38.56,70.84c-17.78,26.67-40.14,51.51-66.45,73.85-1.29,1.1-2.7,2.22-4.3,3.43-5.33,4-7.14,9.82-5.08,16.27,3.08,9.63,5.13,19.58,7.28,31.57a386.42,386.42,0,0,1,5.57,50.49c.68,15.05-.56,30.25-2.13,47.13a375.18,375.18,0,0,1-19.6,89.14c-1.62,4.63-3.46,6-8.2,6h-.48a404.87,404.87,0,0,1-71.17-6.58,408.17,408.17,0,0,1-53.55-13.25,346.23,346.23,0,0,1-85-41,12.07,12.07,0,0,0-14.23.16c-17.86,12.28-38.32,23.13-64.4,34.16-17.71,7.48-36.36,12.15-53.94,16.28a372.26,372.26,0,0,1-85,9.79c-3.06,0-6.17,0-9.25-.11-6-.15-7.66-1.39-9.44-7A401.58,401.58,0,0,1,125,582.54c-.1-3.25-.28-6.47-.42-9.06,0-.9-.1-1.73-.13-2.46.48-27.87,3-51.46,7.94-74.21l.35-1.59c1.43-6.62,2.78-12.86,4.71-18.94,1.41-4.46,1.58-10.93-5.66-16.46-16.37-12.49-32.08-27.39-48-45.54-20.53-23.35-38.32-51-54.4-84.67-7-14.74-13.46-31.2-20.17-51.8-1.4-4.31-1.08-8.05,5.07-12.27a443.23,443.23,0,0,1,63-36.64c10.73-5,22.72-10,37.72-15.62,23.45-8.79,49.95-15,81-19.05a212.6,212.6,0,0,1,22.95-1.73c6.9-.13,11.7-3.67,13.9-10.21,6.84-20.36,16.78-40.92,31.27-64.7C277,96.47,293.39,75.83,314.25,54.5,329.49,38.91,347,24.23,367.83,9.6a6.7,6.7,0,0,1,3.83-1.1m2.25,227.12a12.18,12.18,0,0,0,6.95-2.28c4.52-3.06,9.2-6.21,14-9.05,15.76-9.31,30.45-15.89,44.91-20.1a287.73,287.73,0,0,1,45.69-9.67h0a9.79,9.79,0,0,0,9.82-11.84,8.69,8.69,0,0,0-.39-1.52c-.07-.19-.14-.39-.21-.61-.26-.74-.57-1.67-1-2.67-8.66-20-17.9-37-28.25-52.23-7.68-11.26-15.27-22.24-23.76-32.8C424.31,71.24,404,51.09,379.52,31.24a12.32,12.32,0,0,0-7.87-3,13.21,13.21,0,0,0-8.51,3.43c-2.4,2-4.87,4-7.26,6-5.26,4.3-10.7,8.74-15.92,13.37-25,22.24-46.82,48.63-66.59,80.68-8.17,13.25-15.66,28.43-22.9,46.42l-.08.2c-.73,1.8-2.44,6,.23,10.37,1.23,2,3.74,4.48,8.7,4.9a207.76,207.76,0,0,1,25.42,3.91C301.54,201,315,205.1,327,210.29a202.52,202.52,0,0,1,39.81,22.84,11.92,11.92,0,0,0,7.15,2.49M249.69,328.16a14.72,14.72,0,0,0,6.59-1.8,189.72,189.72,0,0,1,50.63-16.74,14.89,14.89,0,0,0,10.95-7.69c8.55-15.37,19.61-29.73,33.81-43.9,1.17-1.16,4.71-4.69,4.11-9.86s-4.66-7.65-6.19-8.6a212.26,212.26,0,0,0-25.77-13.5c-21.92-9.77-45.16-15.6-71-17.8a12.17,12.17,0,0,0-3.38-.49c-3.56,0-9.78,1.54-11.47,11.83-.41,2.52-.88,5.12-1.32,7.62a199.78,199.78,0,0,0-3.22,23.24c-1.47,24.32.35,46.57,5.57,68,2.12,8.71,8.19,9.65,10.7,9.65M141.39,445c6.54,0,9-5.66,10.53-9a248.19,248.19,0,0,1,27.39-47c11.24-15.26,25.12-29,42.42-41.91,6.85-5.12,6.66-11.34,5.31-15.66a215.58,215.58,0,0,1-8.15-38.27c-1.6-13-1.73-27.06-.41-44.22a213,213,0,0,1,3.91-28.17c0-.21.08-.43.11-.65a10.58,10.58,0,0,0-2.37-8.69,10.19,10.19,0,0,0-7.86-3.39,19.13,19.13,0,0,0-2.32.16l-.22,0c-2.63.31-5.27.6-7.91.89-7,.76-14.25,1.55-21.43,2.72-22.58,3.67-46,10.37-73.74,21.08-24.56,9.48-48.37,21.83-72.81,37.75-6.19,4-8.18,10.2-5.47,16.91,1.42,3.51,2.79,7.18,4.11,10.72,2,5.36,4.05,10.9,6.45,16.32A373.19,373.19,0,0,0,90.13,398a298.5,298.5,0,0,0,42.19,42.71c2.56,2.11,5.21,4.29,9.07,4.29m461.46-.29a11.89,11.89,0,0,0,8.39-3.94c1.71-1.69,3.56-3.31,5.52-5,1.43-1.25,2.9-2.55,4.37-3.91,19.17-17.86,36.66-39.25,55-67.32,14.77-22.57,27.27-47.48,38.24-76.14,1.88-4.92,2.44-12-5.62-17.55a369.91,369.91,0,0,0-113.35-52.4,288.12,288.12,0,0,0-59.95-9.88,15.57,15.57,0,0,0-2.2-.17,10,10,0,0,0-8.14,3.78c-1.42,1.81-2.87,5-1.69,9.8a209.5,209.5,0,0,1,4.62,28.39c1.93,18.93,1.71,35.7-.69,51.27a220.68,220.68,0,0,1-7.73,33.3c-1.29,4-1.51,9.82,4.72,14.63,22.8,17.62,40.4,37.19,53.83,59.82a245.39,245.39,0,0,1,14.78,28c2.76,6.42,7.38,7.38,9.89,7.38M497.29,330.85c2.3,0,7.9-.84,10.16-8.64a140.79,140.79,0,0,0,4.6-23.64l.36-3.21c.9-8,1.83-16.28,1.45-24-.07-16.57-2.16-33.38-6.57-52.88-1.35-6-5.71-9.55-11.65-9.55a25.4,25.4,0,0,0-2.58.16c-8.9.94-16.9,2.13-24.45,3.65a215.26,215.26,0,0,0-70.88,27.62c-1.49.92-5.45,3.37-6.1,8.3s2.44,8.2,3.77,9.62c13.69,14.6,24.17,29.06,32.05,44.18a14.08,14.08,0,0,0,9.95,7.78c6.26,1.27,12.37,3.09,18.83,5l1.1.33A202.09,202.09,0,0,1,491,329.06a13.76,13.76,0,0,0,6.29,1.79M373.1,321a11.92,11.92,0,0,0,6.18-1.75A78.05,78.05,0,0,1,399.12,311h.06c8.16-2.14,8.13-9.19,8-10.58a8.56,8.56,0,0,0-1.15-3.75c-.08-.13-.15-.27-.23-.41a23.35,23.35,0,0,0-1.35-2.2c-.64-.91-1.28-1.81-1.91-2.72-1.83-2.61-3.72-5.31-5.78-7.94A189,189,0,0,0,381.91,266a11.81,11.81,0,0,0-8.44-4,11.31,11.31,0,0,0-8.18,3.73,258.19,258.19,0,0,0-23.55,27.57c-3.19,4.3-2.9,8-2.1,10.41.65,1.92,2.53,5.38,7.76,6.9a83.81,83.81,0,0,1,19.78,8.71A11.49,11.49,0,0,0,373.1,321M337.82,427.29h1.51c5.63,0,7.8,1.77,9.27,7.56a66,66,0,0,0,16.25,28.75,10.24,10.24,0,0,0,15.48.28c9.26-9.3,15-18.19,18.06-28,1.06-3.4,2.16-5.49,3.35-6.37s3.62-1.38,7.33-1.45a78.25,78.25,0,0,0,31-7.43,10.66,10.66,0,0,0,5.38-15.59c-6.05-11.69-13.6-20.24-23.06-26.12-4.52-2.8-3.78-7.08-2.93-9.38a81.79,81.79,0,0,0,4.85-24.34c.63-4.43-.57-9-1.45-12.39-1.65-6.34-6.5-8.6-10.49-8.6a12,12,0,0,0-2.7.31c-10.78,2.41-21.2,5.22-30.2,13-2.06,1.78-3.91,2.65-5.66,2.65a8.07,8.07,0,0,1-3.68-1.05c-2.05-1.07-4.1-2.39-6.39-3.89A77.69,77.69,0,0,0,336,323.52a15.28,15.28,0,0,0-3-.34c-5.47,0-9.56,3.82-10.17,9.51-1.1,10.29-1.89,22.22,2.66,33.67,2.19,5.54.69,9.88-4.74,13.68A69.83,69.83,0,0,0,300,403.28a11.78,11.78,0,0,0-1.41,9.32,11.91,11.91,0,0,0,6.43,7,72.34,72.34,0,0,0,32.82,7.67m-56.05-32.58c2,0,5.79-.66,8.72-5.09,3.9-5.89,9.06-11.14,14.06-15.94a12.72,12.72,0,0,0,3.63-12.33,95.3,95.3,0,0,1-1.66-16.7c0-5.42,0-9.71-3.37-13.09a10.18,10.18,0,0,0-7.42-3c-2.4,0-4.68.67-8.14,1.77A208.73,208.73,0,0,0,259,341.71c-1.35.66-5.47,2.66-6.81,7.41a11.58,11.58,0,0,0,1.77,9.6c.91,1.44,1.76,3.08,2.66,4.82.78,1.51,1.59,3.07,2.51,4.65C263.72,376,268.23,383,273,389.61c2.41,3.38,5.37,5.1,8.82,5.1m182,.66c2.33,0,5.75-.84,8.76-4.85A262.34,262.34,0,0,0,492.62,360,10.86,10.86,0,0,0,487,343.78c-2.9-1.22-5.74-2.52-8.75-3.9-3.18-1.46-6.47-3-9.83-4.37-3.69-1.53-7.37-2.82-10.62-4-1.26-.44-2.46-.85-3.56-1.26a8.54,8.54,0,0,0-2.44-.49c-.72,0-1.39-.08-2-.08a10,10,0,0,0-7.57,3c-2.89,3-2.68,6.8-2.58,8.61.42,7.49-.76,15-2,21.29A11.82,11.82,0,0,0,441.18,374a104.06,104.06,0,0,1,13.49,16c2.51,3.56,5.57,5.36,9.1,5.36M261,495.78l1.73,0h1a4.38,4.38,0,0,1,.58,0c.51,0,1,.07,1.49.07a10.67,10.67,0,0,0,8.37-3.65,10.89,10.89,0,0,0,2.25-9.18,100.4,100.4,0,0,1-1-11.21c-.11-2.22-.22-4.52-.42-6.84a158.12,158.12,0,0,1,1.59-37.78c.85-5.41-.41-9.86-3.85-13.6a197.49,197.49,0,0,1-31.07-45.75c-2.84-5.65-6.89-6.84-9.79-6.84a12.24,12.24,0,0,0-7.87,3.31,203.08,203.08,0,0,0-24.26,24.08,235.05,235.05,0,0,0-37.16,60.55c-3.1,7.39-.76,13.94,6.27,17.51,2,1,3.89,2.05,5.94,3.18,2.67,1.46,5.44,3,8.33,4.38,18.9,9.13,36.93,15.18,55.12,18.5,6.35,1.16,12.57,2,18.58,2.8l3,.41a8.72,8.72,0,0,0,1.14.07m215.58,2.16a14,14,0,0,0,2.58-.25l2.73-.13c2.71-.11,5.5-.23,8.43-.63,31.44-4.36,60.45-14.7,86.22-30.74,3.73-2.31,9.35-7.6,5.18-17-5-11.25-12-25.92-21.64-39.62C547.49,391.71,535.38,378.19,522,367a12.55,12.55,0,0,0-8-3.32c-4.12,0-7.45,2.25-9.9,6.7-3.83,7-6.94,12.15-10.07,16.86a183.78,183.78,0,0,1-22.52,27.86,15.38,15.38,0,0,0-4.42,13.72c1.56,10.54,2.9,26.42-.62,55.94-.21,1.71-.75,6.24,2.42,9.81a10.15,10.15,0,0,0,7.73,3.35m-173.2-3.83a16.78,16.78,0,0,0,3.11-.31,314.75,314.75,0,0,0,35.69-9.25c5.06-1.57,7-4.73,7.76-7.11s.95-6.09-2.31-10.27a67.76,67.76,0,0,1-9.82-16.79l0-.1c-2-5.11-5.45-7.86-10.15-8.2-7.53-.53-14.95-3-23.16-5.92a12.29,12.29,0,0,0-4.22-.78c-5,0-10,3.71-10.13,10.79,0,1.94,0,3.87,0,5.74v2.38c0,.15,0,.3,0,.44.15,2.8.23,5.7.31,8.51A176.75,176.75,0,0,0,291.76,483c1.45,10.33,9.28,11.14,11.65,11.14m136.46,1.26c4.83,0,10.71-3,11.42-11.37.2-2.38.46-4.75.73-7.25a135,135,0,0,0,1.16-18.69V447.37c0-6.86-4.86-10.45-9.66-10.45a12,12,0,0,0-4.18.8c-7.32,2.69-13,4.07-18.6,4.49a13.87,13.87,0,0,0-11.91,8.25c-3,6.88-7.52,12.81-11.53,17.72a10.35,10.35,0,0,0,4.63,17A265.9,265.9,0,0,0,436.39,495a16.38,16.38,0,0,0,3.48.4M149.3,490.64l0,.1c-.1.34-.24.8-.37,1.34a330.75,330.75,0,0,0-8.69,81.73c-.41,14.91,1,29.13,2.32,41.29a384.87,384.87,0,0,0,11.61,60.11c1.67,6,6,9.37,12.3,9.37H167a394.13,394.13,0,0,0,45.2-3.53,379.23,379.23,0,0,0,67-16,326.9,326.9,0,0,0,67.57-31.38c1.76-1.07,6.41-3.92,6.51-9.66,0-2.62-.93-6.41-5.78-9.61a17.66,17.66,0,0,1-2.18-2L344,611.05c-16.05-15.19-28.66-30.25-38.54-46a199,199,0,0,1-20.28-44.11c-2-6.14-6.49-9.45-13-9.57-24.72-.46-46.46-4.2-66.44-11.44-11.91-4.31-25.86-9.76-39.06-17.45a14.07,14.07,0,0,0-7.12-2.26c-4.68,0-9.6,3.24-10.26,10.45m322,22.42h-1c-4.51,0-10.39,1.67-12.78,9.65-3.35,11.15-8.45,21.78-13.4,31.71a160.73,160.73,0,0,1-16.68,26.12,291.4,291.4,0,0,1-30.9,34.25c-1.5,1.43-5,4.78-4.42,9.9s4.78,7.63,6.35,8.57c22.92,13.62,44.63,23.59,66.39,30.49,18.4,5.84,38.08,11.82,58.7,15.27,16.61,2.79,33.43,4.38,49.13,5.7.62,0,1.22.08,1.81.08,7.41,0,12.33-4,14.62-12,10.74-37.24,15.49-71.21,14.52-103.84,0-2.4,0-4.86.07-7.25.08-5.55.16-11.3-.15-17.08a311.74,311.74,0,0,0-8-53.16c-2.07-9-7.75-10.35-11-10.35a14.62,14.62,0,0,0-7.29,2.27,246.64,246.64,0,0,1-46.3,20.66c-18.36,6.06-37.89,9-59.71,9m-98.9,99.12a12.5,12.5,0,0,0,8.19-3.41,220.61,220.61,0,0,0,58.05-79c2.14-5,4-9.26,1.62-14s-6.95-5.79-11.82-6.95l-1-.22-.59-.13c-14.61-3.45-31.7-8.1-47.67-16.41a23.25,23.25,0,0,0-3.3-1.38l-.63-.23a8.45,8.45,0,0,0-3.1-.59,7.79,7.79,0,0,0-1.44.13,31.16,31.16,0,0,0-9.27,3.43c-.87.44-1.7.87-2.42,1.17a215.58,215.58,0,0,1-47.56,13.59c-1.64.29-6.61,1.14-9.12,5.76s-.57,9.12.06,10.61l.38.88c2.73,6.41,5.56,13,9.06,19.43A225.45,225.45,0,0,0,364.49,609a12.21,12.21,0,0,0,7.95,3.18M371.66,0A15.2,15.2,0,0,0,363,2.64a387.78,387.78,0,0,0-54.78,45.91c-19.33,19.77-36.88,40.94-51.32,64.62-12.86,21.1-24.18,42.92-32.07,66.41-1,3.07-2.59,4.35-6,4.42a219.76,219.76,0,0,0-23.88,1.8c-28.31,3.67-56.08,9.46-82.91,19.51-13,4.87-25.82,10-38.36,15.89a454.15,454.15,0,0,0-64.2,37.33C1.77,263.8-2,270.85,1.1,280.44a429.87,429.87,0,0,0,20.58,52.84c14.94,31.24,32.74,60.53,55.68,86.62,15,17.07,31.18,32.88,49.26,46.68,2.53,1.94,3.73,3.92,2.71,7.12-2.21,7-3.71,14.15-5.26,21.31-5.33,24.58-7.69,49.48-8.14,76.15.14,2.84.43,7.23.56,11.63a408.17,408.17,0,0,0,18.87,112.44c2.91,9.14,7.71,12.68,17.34,12.91q4.73.11,9.45.11a378.83,378.83,0,0,0,87-10c18.77-4.41,37.48-9.19,55.31-16.73,23-9.72,45.28-20.8,65.91-35a4.2,4.2,0,0,1,2.41-.9,4.09,4.09,0,0,1,2.29.81,353.26,353.26,0,0,0,87.12,42,413.85,413.85,0,0,0,54.68,13.53,411.14,411.14,0,0,0,72.67,6.72h.5c8.39,0,13.4-3.64,16.21-11.66a381.79,381.79,0,0,0,20-91.17c1.5-16.06,2.9-32.18,2.17-48.31a392.7,392.7,0,0,0-5.7-51.59c-2-11-4.14-22-7.55-32.67-1-3.12-.27-5.09,2.11-6.9,1.59-1.2,3.15-2.43,4.67-3.72,26.08-22.14,49-47.09,68-75.62a449.73,449.73,0,0,0,39.3-72.21,331,331,0,0,0,13-34.78,16.69,16.69,0,0,0-5.62-18.26,373,373,0,0,0-37-24.95c-31.93-18.59-65.42-33.49-101.49-42.15-23.77-5.71-47.76-9.87-72.28-10.15-3.21,0-4.69-1-5.76-4-8.64-24.23-20.84-46.73-34.55-68.36-13.22-20.85-29-39.81-46-57.76a410.18,410.18,0,0,0-34.92-32.66C397,15.34,389.34,9.05,381.32,3.13A16.33,16.33,0,0,0,371.66,0Zm2.25,227.11a3.53,3.53,0,0,1-2.1-.82,210.64,210.64,0,0,0-41.48-23.81c-14.09-6.09-28.84-10.14-43.85-13.27A217,217,0,0,0,260,185.15c-3.25-.28-2.42-2-1.68-3.82a294.94,294.94,0,0,1,22.25-45.13c18-29.24,39.25-55.92,65-78.79,7.45-6.62,15.3-12.79,23-19.16a5,5,0,0,1,3.07-1.47,4,4,0,0,1,2.51,1.07c22.3,18.09,42.88,37.92,60.89,60.32,8.32,10.36,15.86,21.28,23.35,32.27a304.82,304.82,0,0,1,27.48,50.83c.43,1,.73,2,1,2.78.37,2.28-1.24,1.87-2.29,2a298.94,298.94,0,0,0-47.23,10c-16.61,4.84-32,12.19-46.85,20.95-4.93,2.91-9.69,6.12-14.43,9.32a3.93,3.93,0,0,1-2.19.82ZM249.69,319.66c-1.15,0-1.88-.86-2.44-3.16-5.24-21.57-6.68-43.43-5.34-65.51.61-10.12,2.8-20,4.44-30,.42-2.51,1-4.71,3.08-4.71a4.62,4.62,0,0,1,1.68.38c24.42,2,47.34,7.41,69.25,17.18a203.4,203.4,0,0,1,24.74,13c2.66,1.65,3.09,2.69.57,5.21-13.74,13.71-25.78,28.78-35.24,45.79a6.42,6.42,0,0,1-5,3.44,199.12,199.12,0,0,0-52.88,17.47,7.33,7.33,0,0,1-2.89,1ZM141.39,436.48c-.78,0-1.82-.84-3.66-2.35a289.13,289.13,0,0,1-41-41.49,363.31,363.31,0,0,1-50-81.48c-3.88-8.75-6.86-17.9-10.45-26.79-1.26-3.09-.48-4.84,2.22-6.59a384.39,384.39,0,0,1,71.23-36.95c23.37-9,47.24-16.58,72.05-20.62,9.59-1.56,19.3-2.42,29-3.55a13.73,13.73,0,0,1,1.55-.14c1.15,0,2.07.42,1.8,2.46A220.92,220.92,0,0,0,210,248.27c-1.18,15.31-1.43,30.62.45,45.91A222.48,222.48,0,0,0,218.93,334c.91,2.9.1,4.5-2.29,6.29-16.73,12.51-31.75,26.81-44.18,43.68a255.18,255.18,0,0,0-28.32,48.57c-1.21,2.73-1.79,4-2.75,4Zm461.46-.29c-.78,0-1.42-.71-2.08-2.24A252.22,252.22,0,0,0,585.49,405C571,380.54,552,360.12,529.55,342.79c-2-1.56-2.62-2.81-1.82-5.31a225.78,225.78,0,0,0,8-34.6c2.74-17.74,2.57-35.58.75-53.43a218.57,218.57,0,0,0-4.82-29.54c-.55-2.24.06-3.06,1.57-3.06a6.82,6.82,0,0,1,1.26.14,278.09,278.09,0,0,1,58.64,9.61c39.73,10.88,76.82,27.68,110.76,51.19,2.81,1.95,4,3.74,2.51,7.53-10,26.1-22.11,51.14-37.4,74.52-15.56,23.79-32.8,46.29-53.7,65.74-3.31,3.09-6.85,5.94-10.07,9.12-1,1-1.74,1.49-2.41,1.49ZM497.29,322.35a6.2,6.2,0,0,1-2.44-.87,209,209,0,0,0-35.09-14.06c-6.85-2.05-13.66-4.13-20.67-5.55a5.67,5.67,0,0,1-4.1-3.37c-8.85-17-20.32-32.13-33.39-46.07-2.09-2.24-2.25-3.1.6-4.86a205.3,205.3,0,0,1,68.09-26.52c7.84-1.58,15.72-2.69,23.66-3.53.59-.06,1.16-.12,1.69-.12,1.56,0,2.81.51,3.36,2.92,3.74,16.55,6.3,33.23,6.36,51.25.42,8.07-.78,17.1-1.77,26.07a130.82,130.82,0,0,1-4.31,22.21c-.53,1.82-1.1,2.5-2,2.5ZM373.1,312.5a2.91,2.91,0,0,1-1.54-.45,91.91,91.91,0,0,0-21.79-9.59c-2.59-.75-2.63-2.14-1.2-4.08a249.36,249.36,0,0,1,22.78-26.67,3.13,3.13,0,0,1,2.12-1.18,3.7,3.7,0,0,1,2.41,1.44,186.45,186.45,0,0,1,14.22,16.67c2.62,3.35,5,6.88,7.46,10.35.46.65.81,1.37,1.17,2,.09,1.37-.86,1.58-1.77,1.82a85.73,85.73,0,0,0-22,9.14,3.7,3.7,0,0,1-1.85.56ZM337.82,418.79a63.57,63.57,0,0,1-29-6.76c-2.51-1.26-2.7-2.35-1.45-4.56A61.67,61.67,0,0,1,325.58,387c8.86-6.2,11.33-14.8,7.77-23.79-3.73-9.41-3.17-19.61-2.1-29.62.16-1.5.78-1.92,1.71-1.92a7.48,7.48,0,0,1,1.38.18,69.75,69.75,0,0,1,24.78,10.51c2.32,1.51,4.65,3,7.1,4.31a16.45,16.45,0,0,0,7.62,2q5.76,0,11.22-4.72c7.64-6.6,17-9,26.5-11.15a4.54,4.54,0,0,1,.84-.1c1.24,0,1.89.8,2.26,2.24.88,3.37,1.7,6.71,1.21,9.37a73.93,73.93,0,0,1-4.37,22.29c-2.81,7.66-.47,15.25,6.43,19.54,9,5.6,15.2,13.53,20,22.8,1.08,2.1.71,3-1.34,3.93a70.15,70.15,0,0,1-27.7,6.67c-10.93.23-15.4,3.49-18.62,13.8-3,9.64-8.93,17.44-16,24.51a1.86,1.86,0,0,1-3.24-.09,57.42,57.42,0,0,1-14.22-25c-2.41-9.43-7.79-14-17.51-14h-1.51Zm-56.05-32.58c-.66,0-1.27-.65-1.89-1.53-4.79-6.72-9.22-13.67-13.38-20.79-1.87-3.19-3.35-6.62-5.33-9.74-1.62-2.53-.76-3.65,1.59-4.8a200.64,200.64,0,0,1,27.4-10.9,22.58,22.58,0,0,1,5.57-1.36c2.27,0,2.3,2,2.29,7.6A103.4,103.4,0,0,0,299.83,363c.37,1.95.24,3.24-1.17,4.6-5.58,5.35-11,10.89-15.26,17.38-.6.91-1.14,1.28-1.63,1.28Zm182,.66c-.71,0-1.37-.66-2.15-1.76A112.56,112.56,0,0,0,447,367.78a3.45,3.45,0,0,1-1.05-3.56c1.48-7.72,2.55-15.46,2.11-23.36-.12-2.19,0-2.64,1.66-2.64.42,0,.94,0,1.58.07,3.89,1.41,8.94,3,13.82,5.07,6.25,2.6,12.32,5.63,18.55,8.26,2.37,1,2.64,2.16,1.5,4.22a255.17,255.17,0,0,1-19.45,29.58c-.75,1-1.37,1.45-2,1.45ZM261,487.28c-6.76-.92-14-1.83-21.2-3.15-18.55-3.38-36.06-9.63-53-17.79-4.8-2.31-9.37-5.07-14.12-7.48-3-1.54-3.7-3.24-2.27-6.63a224.75,224.75,0,0,1,35.81-58.36,192.46,192.46,0,0,1,23.24-23.06,4.28,4.28,0,0,1,2.39-1.31c.75,0,1.42.62,2.18,2.14a207.33,207.33,0,0,0,32.42,47.69c1.76,1.92,2.13,3.87,1.71,6.53a167.33,167.33,0,0,0-1.66,39.81c.52,6.24.45,12.52,1.47,18.72.35,2.15-.48,2.94-2.23,2.94l-.68,0c-.45,0-.9-.06-1.39-.06-.79,0-1.66,0-2.72,0Zm215.58,2.16c-1.82,0-2-1.32-1.71-3.65,2.31-19.37,3.47-38.77.6-58.2a6.91,6.91,0,0,1,2-6.48A191.73,191.73,0,0,0,501.1,392c3.75-5.64,7.16-11.53,10.43-17.46.86-1.55,1.57-2.31,2.46-2.31a4.52,4.52,0,0,1,2.57,1.35c14.21,11.86,26,25.88,36.61,40.93,8.42,11.92,14.91,24.86,20.81,38.16,1.27,2.87,1.16,4.43-1.9,6.33-25.51,15.88-53.24,25.42-82.9,29.53-3.68.52-7.44.51-11.1.74a7,7,0,0,1-1.47.2Zm-173.2-3.84c-2,0-2.85-1.11-3.23-3.81-1.28-9.14-1.07-18.34-1.55-27.5,0-2.67,0-5.33,0-8,0-1.52.46-2.41,1.63-2.41a3.91,3.91,0,0,1,1.36.29c8.27,2.94,16.57,5.77,25.42,6.4,1.81.12,2.36,1.62,2.89,3a77,77,0,0,0,11,18.88c1.59,2,1.23,3.24-1.25,4a305.33,305.33,0,0,1-34.73,9,8.6,8.6,0,0,1-1.57.16Zm136.46,1.26a7.83,7.83,0,0,1-1.67-.2,258.92,258.92,0,0,1-33.37-9.47c-2.11-.77-2.28-2-.94-3.63,5-6.09,9.55-12.42,12.73-19.69a5.38,5.38,0,0,1,4.77-3.18,77.69,77.69,0,0,0,20.88-5,3.81,3.81,0,0,1,1.25-.28c.91,0,1.15.7,1.15,1.95v10.8c.26,8.44-1.15,16.75-1.86,25.11-.2,2.38-.93,3.57-2.94,3.57ZM166.44,676.08c-2.23,0-3.4-.58-4.1-3.13A375.47,375.47,0,0,1,151,614.17c-1.46-13.25-2.66-26.52-2.26-40.33A321,321,0,0,1,157.19,494a14.89,14.89,0,0,0,.56-2.33c.14-2.2.81-3,1.81-3a6.4,6.4,0,0,1,2.84,1.1c12.83,7.48,26.51,13.05,40.44,18.1,22.37,8.1,45.53,11.51,69.19,11.94,2.91.06,4.17,1,5.06,3.7a206.59,206.59,0,0,0,21.15,46c11.07,17.68,24.75,33.35,39.9,47.7a37.56,37.56,0,0,0,4.75,4.28c3.23,2.13,2,3.39-.49,4.9A317.26,317.26,0,0,1,276.58,657,372.45,372.45,0,0,1,211,672.62a384.59,384.59,0,0,1-44.23,3.45Zm304.9-154.52c21.25,0,42.16-2.76,62.38-9.44a254.65,254.65,0,0,0,47.89-21.37,6.67,6.67,0,0,1,3-1.13c1.35,0,2.07,1.19,2.66,3.76a304.28,304.28,0,0,1,7.77,51.71c.43,8,.07,16,.07,24,1,34.58-4.64,68.24-14.19,101.36-1.05,3.67-2.42,5.84-6.45,5.84a10.59,10.59,0,0,1-1.1,0c-16.21-1.35-32.38-2.91-48.44-5.6-19.63-3.29-38.62-9-57.52-15-22.76-7.22-44.12-17.52-64.62-29.7-3.09-1.84-2.79-2.73-.4-5a302.17,302.17,0,0,0,31.79-35.24,173.23,173.23,0,0,0,17.53-27.49c5.32-10.7,10.47-21.55,13.92-33.06.77-2.57,1.85-3.59,4.64-3.59h1Zm-98.9,82.12A4,4,0,0,1,370,602.5a216.11,216.11,0,0,1-50.62-61.76c-3.46-6.31-6.25-12.94-9.08-19.56-1.31-3.07-.6-4.08,2.69-4.65a225.69,225.69,0,0,0,49.41-14.13c3.17-1.34,6-3.41,9.83-4.06a27.58,27.58,0,0,1,3.1,1.23c15.7,8.18,32.52,13.11,49.65,17.15.52.12,1,.22,1.56.35,7.49,1.78,7.59,1.82,4.36,9.29-12.77,29.62-31.59,54.8-55.83,76a4.12,4.12,0,0,1-2.6,1.32Z" transform="translate(0 0)"/></g></svg>